# Zentra XR sample model: helix
v 0.3800 -0.4500 0.0000
v 0.3500 -0.3980 0.0312
v 0.2900 -0.3980 0.0312
v 0.2600 -0.4500 0.0000
v 0.2900 -0.5020 -0.0312
v 0.3500 -0.5020 -0.0312
v 0.3730 -0.4400 0.0665
v 0.3430 -0.3880 0.0977
v 0.2830 -0.3880 0.0977
v 0.2530 -0.4400 0.0665
v 0.2830 -0.4920 0.0354
v 0.3430 -0.4920 0.0354
v 0.3523 -0.4300 0.1302
v 0.3223 -0.3780 0.1613
v 0.2623 -0.3780 0.1613
v 0.2323 -0.4300 0.1302
v 0.2623 -0.4820 0.0990
v 0.3223 -0.4820 0.0990
v 0.3189 -0.4200 0.1881
v 0.2889 -0.3680 0.2193
v 0.2289 -0.3680 0.2193
v 0.1989 -0.4200 0.1881
v 0.2289 -0.4720 0.1569
v 0.2889 -0.4720 0.1569
v 0.2741 -0.4100 0.2378
v 0.2441 -0.3580 0.2690
v 0.1841 -0.3580 0.2690
v 0.1541 -0.4100 0.2378
v 0.1841 -0.4620 0.2066
v 0.2441 -0.4620 0.2066
v 0.2200 -0.4000 0.2771
v 0.1900 -0.3480 0.3083
v 0.1300 -0.3480 0.3083
v 0.1000 -0.4000 0.2771
v 0.1300 -0.4520 0.2460
v 0.1900 -0.4520 0.2460
v 0.1589 -0.3900 0.3043
v 0.1289 -0.3380 0.3355
v 0.0689 -0.3380 0.3355
v 0.0389 -0.3900 0.3043
v 0.0689 -0.4420 0.2732
v 0.1289 -0.4420 0.2732
v 0.0934 -0.3800 0.3182
v 0.0634 -0.3280 0.3494
v 0.0034 -0.3280 0.3494
v -0.0266 -0.3800 0.3182
v 0.0034 -0.4320 0.2871
v 0.0634 -0.4320 0.2871
v 0.0266 -0.3700 0.3182
v -0.0034 -0.3180 0.3494
v -0.0634 -0.3180 0.3494
v -0.0934 -0.3700 0.3182
v -0.0634 -0.4220 0.2871
v -0.0034 -0.4220 0.2871
v -0.0389 -0.3600 0.3043
v -0.0689 -0.3080 0.3355
v -0.1289 -0.3080 0.3355
v -0.1589 -0.3600 0.3043
v -0.1289 -0.4120 0.2732
v -0.0689 -0.4120 0.2732
v -0.1000 -0.3500 0.2771
v -0.1300 -0.2980 0.3083
v -0.1900 -0.2980 0.3083
v -0.2200 -0.3500 0.2771
v -0.1900 -0.4020 0.2460
v -0.1300 -0.4020 0.2460
v -0.1541 -0.3400 0.2378
v -0.1841 -0.2880 0.2690
v -0.2441 -0.2880 0.2690
v -0.2741 -0.3400 0.2378
v -0.2441 -0.3920 0.2066
v -0.1841 -0.3920 0.2066
v -0.1989 -0.3300 0.1881
v -0.2289 -0.2780 0.2193
v -0.2889 -0.2780 0.2193
v -0.3189 -0.3300 0.1881
v -0.2889 -0.3820 0.1569
v -0.2289 -0.3820 0.1569
v -0.2323 -0.3200 0.1302
v -0.2623 -0.2680 0.1613
v -0.3223 -0.2680 0.1613
v -0.3523 -0.3200 0.1302
v -0.3223 -0.3720 0.0990
v -0.2623 -0.3720 0.0990
v -0.2530 -0.3100 0.0665
v -0.2830 -0.2580 0.0977
v -0.3430 -0.2580 0.0977
v -0.3730 -0.3100 0.0665
v -0.3430 -0.3620 0.0354
v -0.2830 -0.3620 0.0354
v -0.2600 -0.3000 0.0000
v -0.2900 -0.2480 0.0312
v -0.3500 -0.2480 0.0312
v -0.3800 -0.3000 0.0000
v -0.3500 -0.3520 -0.0312
v -0.2900 -0.3520 -0.0312
v -0.2530 -0.2900 -0.0665
v -0.2830 -0.2380 -0.0354
v -0.3430 -0.2380 -0.0354
v -0.3730 -0.2900 -0.0665
v -0.3430 -0.3420 -0.0977
v -0.2830 -0.3420 -0.0977
v -0.2323 -0.2800 -0.1302
v -0.2623 -0.2280 -0.0990
v -0.3223 -0.2280 -0.0990
v -0.3523 -0.2800 -0.1302
v -0.3223 -0.3320 -0.1613
v -0.2623 -0.3320 -0.1613
v -0.1989 -0.2700 -0.1881
v -0.2289 -0.2180 -0.1569
v -0.2889 -0.2180 -0.1569
v -0.3189 -0.2700 -0.1881
v -0.2889 -0.3220 -0.2193
v -0.2289 -0.3220 -0.2193
v -0.1541 -0.2600 -0.2378
v -0.1841 -0.2080 -0.2066
v -0.2441 -0.2080 -0.2066
v -0.2741 -0.2600 -0.2378
v -0.2441 -0.3120 -0.2690
v -0.1841 -0.3120 -0.2690
v -0.1000 -0.2500 -0.2771
v -0.1300 -0.1980 -0.2460
v -0.1900 -0.1980 -0.2460
v -0.2200 -0.2500 -0.2771
v -0.1900 -0.3020 -0.3083
v -0.1300 -0.3020 -0.3083
v -0.0389 -0.2400 -0.3043
v -0.0689 -0.1880 -0.2732
v -0.1289 -0.1880 -0.2732
v -0.1589 -0.2400 -0.3043
v -0.1289 -0.2920 -0.3355
v -0.0689 -0.2920 -0.3355
v 0.0266 -0.2300 -0.3182
v -0.0034 -0.1780 -0.2871
v -0.0634 -0.1780 -0.2871
v -0.0934 -0.2300 -0.3182
v -0.0634 -0.2820 -0.3494
v -0.0034 -0.2820 -0.3494
v 0.0934 -0.2200 -0.3182
v 0.0634 -0.1680 -0.2871
v 0.0034 -0.1680 -0.2871
v -0.0266 -0.2200 -0.3182
v 0.0034 -0.2720 -0.3494
v 0.0634 -0.2720 -0.3494
v 0.1589 -0.2100 -0.3043
v 0.1289 -0.1580 -0.2732
v 0.0689 -0.1580 -0.2732
v 0.0389 -0.2100 -0.3043
v 0.0689 -0.2620 -0.3355
v 0.1289 -0.2620 -0.3355
v 0.2200 -0.2000 -0.2771
v 0.1900 -0.1480 -0.2460
v 0.1300 -0.1480 -0.2460
v 0.1000 -0.2000 -0.2771
v 0.1300 -0.2520 -0.3083
v 0.1900 -0.2520 -0.3083
v 0.2741 -0.1900 -0.2378
v 0.2441 -0.1380 -0.2066
v 0.1841 -0.1380 -0.2066
v 0.1541 -0.1900 -0.2378
v 0.1841 -0.2420 -0.2690
v 0.2441 -0.2420 -0.2690
v 0.3189 -0.1800 -0.1881
v 0.2889 -0.1280 -0.1569
v 0.2289 -0.1280 -0.1569
v 0.1989 -0.1800 -0.1881
v 0.2289 -0.2320 -0.2193
v 0.2889 -0.2320 -0.2193
v 0.3523 -0.1700 -0.1302
v 0.3223 -0.1180 -0.0990
v 0.2623 -0.1180 -0.0990
v 0.2323 -0.1700 -0.1302
v 0.2623 -0.2220 -0.1613
v 0.3223 -0.2220 -0.1613
v 0.3730 -0.1600 -0.0665
v 0.3430 -0.1080 -0.0354
v 0.2830 -0.1080 -0.0354
v 0.2530 -0.1600 -0.0665
v 0.2830 -0.2120 -0.0977
v 0.3430 -0.2120 -0.0977
v 0.3800 -0.1500 -0.0000
v 0.3500 -0.0980 0.0312
v 0.2900 -0.0980 0.0312
v 0.2600 -0.1500 -0.0000
v 0.2900 -0.2020 -0.0312
v 0.3500 -0.2020 -0.0312
v 0.3730 -0.1400 0.0665
v 0.3430 -0.0880 0.0977
v 0.2830 -0.0880 0.0977
v 0.2530 -0.1400 0.0665
v 0.2830 -0.1920 0.0354
v 0.3430 -0.1920 0.0354
v 0.3523 -0.1300 0.1302
v 0.3223 -0.0780 0.1613
v 0.2623 -0.0780 0.1613
v 0.2323 -0.1300 0.1302
v 0.2623 -0.1820 0.0990
v 0.3223 -0.1820 0.0990
v 0.3189 -0.1200 0.1881
v 0.2889 -0.0680 0.2193
v 0.2289 -0.0680 0.2193
v 0.1989 -0.1200 0.1881
v 0.2289 -0.1720 0.1569
v 0.2889 -0.1720 0.1569
v 0.2741 -0.1100 0.2378
v 0.2441 -0.0580 0.2690
v 0.1841 -0.0580 0.2690
v 0.1541 -0.1100 0.2378
v 0.1841 -0.1620 0.2066
v 0.2441 -0.1620 0.2066
v 0.2200 -0.1000 0.2771
v 0.1900 -0.0480 0.3083
v 0.1300 -0.0480 0.3083
v 0.1000 -0.1000 0.2771
v 0.1300 -0.1520 0.2460
v 0.1900 -0.1520 0.2460
v 0.1589 -0.0900 0.3043
v 0.1289 -0.0380 0.3355
v 0.0689 -0.0380 0.3355
v 0.0389 -0.0900 0.3043
v 0.0689 -0.1420 0.2732
v 0.1289 -0.1420 0.2732
v 0.0934 -0.0800 0.3182
v 0.0634 -0.0280 0.3494
v 0.0034 -0.0280 0.3494
v -0.0266 -0.0800 0.3182
v 0.0034 -0.1320 0.2871
v 0.0634 -0.1320 0.2871
v 0.0266 -0.0700 0.3182
v -0.0034 -0.0180 0.3494
v -0.0634 -0.0180 0.3494
v -0.0934 -0.0700 0.3182
v -0.0634 -0.1220 0.2871
v -0.0034 -0.1220 0.2871
v -0.0389 -0.0600 0.3043
v -0.0689 -0.0080 0.3355
v -0.1289 -0.0080 0.3355
v -0.1589 -0.0600 0.3043
v -0.1289 -0.1120 0.2732
v -0.0689 -0.1120 0.2732
v -0.1000 -0.0500 0.2771
v -0.1300 0.0020 0.3083
v -0.1900 0.0020 0.3083
v -0.2200 -0.0500 0.2771
v -0.1900 -0.1020 0.2460
v -0.1300 -0.1020 0.2460
v -0.1541 -0.0400 0.2378
v -0.1841 0.0120 0.2690
v -0.2441 0.0120 0.2690
v -0.2741 -0.0400 0.2378
v -0.2441 -0.0920 0.2066
v -0.1841 -0.0920 0.2066
v -0.1989 -0.0300 0.1881
v -0.2289 0.0220 0.2193
v -0.2889 0.0220 0.2193
v -0.3189 -0.0300 0.1881
v -0.2889 -0.0820 0.1569
v -0.2289 -0.0820 0.1569
v -0.2323 -0.0200 0.1302
v -0.2623 0.0320 0.1613
v -0.3223 0.0320 0.1613
v -0.3523 -0.0200 0.1302
v -0.3223 -0.0720 0.0990
v -0.2623 -0.0720 0.0990
v -0.2530 -0.0100 0.0665
v -0.2830 0.0420 0.0977
v -0.3430 0.0420 0.0977
v -0.3730 -0.0100 0.0665
v -0.3430 -0.0620 0.0354
v -0.2830 -0.0620 0.0354
v -0.2600 0.0000 0.0000
v -0.2900 0.0520 0.0312
v -0.3500 0.0520 0.0312
v -0.3800 0.0000 0.0000
v -0.3500 -0.0520 -0.0312
v -0.2900 -0.0520 -0.0312
v -0.2530 0.0100 -0.0665
v -0.2830 0.0620 -0.0354
v -0.3430 0.0620 -0.0354
v -0.3730 0.0100 -0.0665
v -0.3430 -0.0420 -0.0977
v -0.2830 -0.0420 -0.0977
v -0.2323 0.0200 -0.1302
v -0.2623 0.0720 -0.0990
v -0.3223 0.0720 -0.0990
v -0.3523 0.0200 -0.1302
v -0.3223 -0.0320 -0.1613
v -0.2623 -0.0320 -0.1613
v -0.1989 0.0300 -0.1881
v -0.2289 0.0820 -0.1569
v -0.2889 0.0820 -0.1569
v -0.3189 0.0300 -0.1881
v -0.2889 -0.0220 -0.2193
v -0.2289 -0.0220 -0.2193
v -0.1541 0.0400 -0.2378
v -0.1841 0.0920 -0.2066
v -0.2441 0.0920 -0.2066
v -0.2741 0.0400 -0.2378
v -0.2441 -0.0120 -0.2690
v -0.1841 -0.0120 -0.2690
v -0.1000 0.0500 -0.2771
v -0.1300 0.1020 -0.2460
v -0.1900 0.1020 -0.2460
v -0.2200 0.0500 -0.2771
v -0.1900 -0.0020 -0.3083
v -0.1300 -0.0020 -0.3083
v -0.0389 0.0600 -0.3043
v -0.0689 0.1120 -0.2732
v -0.1289 0.1120 -0.2732
v -0.1589 0.0600 -0.3043
v -0.1289 0.0080 -0.3355
v -0.0689 0.0080 -0.3355
v 0.0266 0.0700 -0.3182
v -0.0034 0.1220 -0.2871
v -0.0634 0.1220 -0.2871
v -0.0934 0.0700 -0.3182
v -0.0634 0.0180 -0.3494
v -0.0034 0.0180 -0.3494
v 0.0934 0.0800 -0.3182
v 0.0634 0.1320 -0.2871
v 0.0034 0.1320 -0.2871
v -0.0266 0.0800 -0.3182
v 0.0034 0.0280 -0.3494
v 0.0634 0.0280 -0.3494
v 0.1589 0.0900 -0.3043
v 0.1289 0.1420 -0.2732
v 0.0689 0.1420 -0.2732
v 0.0389 0.0900 -0.3043
v 0.0689 0.0380 -0.3355
v 0.1289 0.0380 -0.3355
v 0.2200 0.1000 -0.2771
v 0.1900 0.1520 -0.2460
v 0.1300 0.1520 -0.2460
v 0.1000 0.1000 -0.2771
v 0.1300 0.0480 -0.3083
v 0.1900 0.0480 -0.3083
v 0.2741 0.1100 -0.2378
v 0.2441 0.1620 -0.2066
v 0.1841 0.1620 -0.2066
v 0.1541 0.1100 -0.2378
v 0.1841 0.0580 -0.2690
v 0.2441 0.0580 -0.2690
v 0.3189 0.1200 -0.1881
v 0.2889 0.1720 -0.1569
v 0.2289 0.1720 -0.1569
v 0.1989 0.1200 -0.1881
v 0.2289 0.0680 -0.2193
v 0.2889 0.0680 -0.2193
v 0.3523 0.1300 -0.1302
v 0.3223 0.1820 -0.0990
v 0.2623 0.1820 -0.0990
v 0.2323 0.1300 -0.1302
v 0.2623 0.0780 -0.1613
v 0.3223 0.0780 -0.1613
v 0.3730 0.1400 -0.0665
v 0.3430 0.1920 -0.0354
v 0.2830 0.1920 -0.0354
v 0.2530 0.1400 -0.0665
v 0.2830 0.0880 -0.0977
v 0.3430 0.0880 -0.0977
v 0.3800 0.1500 -0.0000
v 0.3500 0.2020 0.0312
v 0.2900 0.2020 0.0312
v 0.2600 0.1500 -0.0000
v 0.2900 0.0980 -0.0312
v 0.3500 0.0980 -0.0312
v 0.3730 0.1600 0.0665
v 0.3430 0.2120 0.0977
v 0.2830 0.2120 0.0977
v 0.2530 0.1600 0.0665
v 0.2830 0.1080 0.0354
v 0.3430 0.1080 0.0354
v 0.3523 0.1700 0.1302
v 0.3223 0.2220 0.1613
v 0.2623 0.2220 0.1613
v 0.2323 0.1700 0.1302
v 0.2623 0.1180 0.0990
v 0.3223 0.1180 0.0990
v 0.3189 0.1800 0.1881
v 0.2889 0.2320 0.2193
v 0.2289 0.2320 0.2193
v 0.1989 0.1800 0.1881
v 0.2289 0.1280 0.1569
v 0.2889 0.1280 0.1569
v 0.2741 0.1900 0.2378
v 0.2441 0.2420 0.2690
v 0.1841 0.2420 0.2690
v 0.1541 0.1900 0.2378
v 0.1841 0.1380 0.2066
v 0.2441 0.1380 0.2066
v 0.2200 0.2000 0.2771
v 0.1900 0.2520 0.3083
v 0.1300 0.2520 0.3083
v 0.1000 0.2000 0.2771
v 0.1300 0.1480 0.2460
v 0.1900 0.1480 0.2460
v 0.1589 0.2100 0.3043
v 0.1289 0.2620 0.3355
v 0.0689 0.2620 0.3355
v 0.0389 0.2100 0.3043
v 0.0689 0.1580 0.2732
v 0.1289 0.1580 0.2732
v 0.0934 0.2200 0.3182
v 0.0634 0.2720 0.3494
v 0.0034 0.2720 0.3494
v -0.0266 0.2200 0.3182
v 0.0034 0.1680 0.2871
v 0.0634 0.1680 0.2871
v 0.0266 0.2300 0.3182
v -0.0034 0.2820 0.3494
v -0.0634 0.2820 0.3494
v -0.0934 0.2300 0.3182
v -0.0634 0.1780 0.2871
v -0.0034 0.1780 0.2871
v -0.0389 0.2400 0.3043
v -0.0689 0.2920 0.3355
v -0.1289 0.2920 0.3355
v -0.1589 0.2400 0.3043
v -0.1289 0.1880 0.2732
v -0.0689 0.1880 0.2732
v -0.1000 0.2500 0.2771
v -0.1300 0.3020 0.3083
v -0.1900 0.3020 0.3083
v -0.2200 0.2500 0.2771
v -0.1900 0.1980 0.2460
v -0.1300 0.1980 0.2460
v -0.1541 0.2600 0.2378
v -0.1841 0.3120 0.2690
v -0.2441 0.3120 0.2690
v -0.2741 0.2600 0.2378
v -0.2441 0.2080 0.2066
v -0.1841 0.2080 0.2066
v -0.1989 0.2700 0.1881
v -0.2289 0.3220 0.2193
v -0.2889 0.3220 0.2193
v -0.3189 0.2700 0.1881
v -0.2889 0.2180 0.1569
v -0.2289 0.2180 0.1569
v -0.2323 0.2800 0.1302
v -0.2623 0.3320 0.1613
v -0.3223 0.3320 0.1613
v -0.3523 0.2800 0.1302
v -0.3223 0.2280 0.0990
v -0.2623 0.2280 0.0990
v -0.2530 0.2900 0.0665
v -0.2830 0.3420 0.0977
v -0.3430 0.3420 0.0977
v -0.3730 0.2900 0.0665
v -0.3430 0.2380 0.0354
v -0.2830 0.2380 0.0354
v -0.2600 0.3000 0.0000
v -0.2900 0.3520 0.0312
v -0.3500 0.3520 0.0312
v -0.3800 0.3000 0.0000
v -0.3500 0.2480 -0.0312
v -0.2900 0.2480 -0.0312
v -0.2530 0.3100 -0.0665
v -0.2830 0.3620 -0.0354
v -0.3430 0.3620 -0.0354
v -0.3730 0.3100 -0.0665
v -0.3430 0.2580 -0.0977
v -0.2830 0.2580 -0.0977
v -0.2323 0.3200 -0.1302
v -0.2623 0.3720 -0.0990
v -0.3223 0.3720 -0.0990
v -0.3523 0.3200 -0.1302
v -0.3223 0.2680 -0.1613
v -0.2623 0.2680 -0.1613
v -0.1989 0.3300 -0.1881
v -0.2289 0.3820 -0.1569
v -0.2889 0.3820 -0.1569
v -0.3189 0.3300 -0.1881
v -0.2889 0.2780 -0.2193
v -0.2289 0.2780 -0.2193
v -0.1541 0.3400 -0.2378
v -0.1841 0.3920 -0.2066
v -0.2441 0.3920 -0.2066
v -0.2741 0.3400 -0.2378
v -0.2441 0.2880 -0.2690
v -0.1841 0.2880 -0.2690
v -0.1000 0.3500 -0.2771
v -0.1300 0.4020 -0.2460
v -0.1900 0.4020 -0.2460
v -0.2200 0.3500 -0.2771
v -0.1900 0.2980 -0.3083
v -0.1300 0.2980 -0.3083
v -0.0389 0.3600 -0.3043
v -0.0689 0.4120 -0.2732
v -0.1289 0.4120 -0.2732
v -0.1589 0.3600 -0.3043
v -0.1289 0.3080 -0.3355
v -0.0689 0.3080 -0.3355
v 0.0266 0.3700 -0.3182
v -0.0034 0.4220 -0.2871
v -0.0634 0.4220 -0.2871
v -0.0934 0.3700 -0.3182
v -0.0634 0.3180 -0.3494
v -0.0034 0.3180 -0.3494
v 0.0934 0.3800 -0.3182
v 0.0634 0.4320 -0.2871
v 0.0034 0.4320 -0.2871
v -0.0266 0.3800 -0.3182
v 0.0034 0.3280 -0.3494
v 0.0634 0.3280 -0.3494
v 0.1589 0.3900 -0.3043
v 0.1289 0.4420 -0.2732
v 0.0689 0.4420 -0.2732
v 0.0389 0.3900 -0.3043
v 0.0689 0.3380 -0.3355
v 0.1289 0.3380 -0.3355
v 0.2200 0.4000 -0.2771
v 0.1900 0.4520 -0.2460
v 0.1300 0.4520 -0.2460
v 0.1000 0.4000 -0.2771
v 0.1300 0.3480 -0.3083
v 0.1900 0.3480 -0.3083
v 0.2741 0.4100 -0.2378
v 0.2441 0.4620 -0.2066
v 0.1841 0.4620 -0.2066
v 0.1541 0.4100 -0.2378
v 0.1841 0.3580 -0.2690
v 0.2441 0.3580 -0.2690
v 0.3189 0.4200 -0.1881
v 0.2889 0.4720 -0.1569
v 0.2289 0.4720 -0.1569
v 0.1989 0.4200 -0.1881
v 0.2289 0.3680 -0.2193
v 0.2889 0.3680 -0.2193
v 0.3523 0.4300 -0.1302
v 0.3223 0.4820 -0.0990
v 0.2623 0.4820 -0.0990
v 0.2323 0.4300 -0.1302
v 0.2623 0.3780 -0.1613
v 0.3223 0.3780 -0.1613
v 0.3730 0.4400 -0.0665
v 0.3430 0.4920 -0.0354
v 0.2830 0.4920 -0.0354
v 0.2530 0.4400 -0.0665
v 0.2830 0.3880 -0.0977
v 0.3430 0.3880 -0.0977
v 0.3800 0.4500 -0.0000
v 0.3500 0.5020 0.0312
v 0.2900 0.5020 0.0312
v 0.2600 0.4500 -0.0000
v 0.2900 0.3980 -0.0312
v 0.3500 0.3980 -0.0312
vn 0.870 0.492 0.018
vn 0.870 0.492 0.018
vn -0.000 0.989 -0.149
vn 0.000 0.989 -0.149
vn -0.806 0.567 -0.170
vn -0.806 0.567 -0.170
vn -0.870 -0.492 -0.018
vn -0.870 -0.492 -0.018
vn 0.000 -0.989 0.149
vn 0.000 -0.989 0.149
vn 0.806 -0.567 0.170
vn 0.806 -0.567 0.170
vn 0.896 0.378 0.232
vn 0.896 0.378 0.232
vn 0.000 0.988 -0.155
vn -0.000 0.988 -0.155
vn -0.718 0.613 -0.330
vn -0.718 0.613 -0.330
vn -0.896 -0.378 -0.232
vn -0.896 -0.378 -0.232
vn 0.000 -0.988 0.155
vn 0.000 -0.988 0.155
vn 0.718 -0.613 0.330
vn 0.718 -0.613 0.330
vn 0.861 0.222 0.459
vn 0.861 0.222 0.459
vn -0.000 0.985 -0.170
vn 0.000 0.985 -0.170
vn -0.616 0.635 -0.465
vn -0.616 0.635 -0.465
vn -0.861 -0.222 -0.459
vn -0.861 -0.222 -0.459
vn 0.000 -0.985 0.170
vn 0.000 -0.985 0.170
vn 0.616 -0.635 0.465
vn 0.616 -0.635 0.465
vn 0.746 0.031 0.665
vn 0.746 0.031 0.665
vn 0.000 0.980 -0.197
vn 0.000 0.980 -0.197
vn -0.503 0.639 -0.582
vn -0.503 0.639 -0.582
vn -0.746 -0.031 -0.665
vn -0.746 -0.031 -0.665
vn 0.000 -0.980 0.197
vn 0.000 -0.980 0.197
vn 0.503 -0.639 0.582
vn 0.503 -0.639 0.582
vn 0.560 -0.164 0.812
vn 0.560 -0.164 0.812
vn 0.000 0.969 -0.246
vn 0.000 0.969 -0.246
vn -0.379 0.627 -0.681
vn -0.379 0.627 -0.681
vn -0.560 0.164 -0.812
vn -0.560 0.164 -0.812
vn 0.000 -0.969 0.246
vn 0.000 -0.969 0.246
vn 0.379 -0.627 0.681
vn 0.379 -0.627 0.681
vn 0.337 -0.333 0.880
vn 0.337 -0.333 0.880
vn 0.000 0.939 -0.345
vn 0.000 0.939 -0.345
vn -0.242 0.598 -0.764
vn -0.242 0.598 -0.764
vn -0.337 0.333 -0.880
vn -0.337 0.333 -0.880
vn 0.000 -0.939 0.345
vn 0.000 -0.939 0.345
vn 0.242 -0.598 0.764
vn 0.242 -0.598 0.764
vn 0.117 -0.461 0.880
vn 0.117 -0.461 0.880
vn 0.000 0.812 -0.584
vn 0.000 0.812 -0.584
vn -0.092 0.551 -0.829
vn -0.092 0.551 -0.829
vn -0.117 0.461 -0.880
vn -0.117 0.461 -0.880
vn 0.000 -0.812 0.584
vn 0.000 -0.812 0.584
vn 0.092 -0.551 0.829
vn 0.092 -0.551 0.829
vn -0.082 -0.547 0.833
vn -0.082 -0.547 0.833
vn 0.000 0.000 -1.000
vn 0.000 0.000 -1.000
vn 0.072 0.482 -0.873
vn 0.072 0.482 -0.873
vn 0.082 0.547 -0.833
vn 0.082 0.547 -0.833
vn 0.000 -0.000 1.000
vn 0.000 0.000 1.000
vn -0.072 -0.482 0.873
vn -0.072 -0.482 0.873
vn -0.253 -0.601 0.758
vn -0.253 -0.601 0.758
vn -0.000 -0.812 -0.584
vn -0.000 -0.812 -0.584
vn 0.248 0.389 -0.887
vn 0.248 0.389 -0.887
vn 0.253 0.601 -0.758
vn 0.253 0.601 -0.758
vn -0.000 0.812 0.584
vn 0.000 0.812 0.584
vn -0.248 -0.389 0.887
vn -0.248 -0.389 0.887
vn -0.400 -0.630 0.666
vn -0.400 -0.630 0.666
vn -0.000 -0.939 -0.345
vn 0.000 -0.939 -0.345
vn 0.428 0.270 -0.862
vn 0.428 0.270 -0.862
vn 0.400 0.630 -0.666
vn 0.400 0.630 -0.666
vn -0.000 0.939 0.345
vn 0.000 0.939 0.345
vn -0.428 -0.270 0.862
vn -0.428 -0.270 0.862
vn -0.526 -0.640 0.561
vn -0.526 -0.640 0.561
vn -0.000 -0.969 -0.246
vn 0.000 -0.969 -0.246
vn 0.598 0.129 -0.791
vn 0.598 0.129 -0.791
vn 0.526 0.640 -0.561
vn 0.526 0.640 -0.561
vn -0.000 0.969 0.246
vn 0.000 0.969 0.246
vn -0.598 -0.129 0.791
vn -0.598 -0.129 0.791
vn -0.634 -0.633 0.444
vn -0.634 -0.633 0.444
vn -0.000 -0.980 -0.197
vn 0.000 -0.980 -0.197
vn 0.740 -0.025 -0.672
vn 0.740 -0.025 -0.672
vn 0.634 0.633 -0.444
vn 0.634 0.633 -0.444
vn -0.000 0.980 0.197
vn 0.000 0.980 0.197
vn -0.740 0.025 0.672
vn -0.740 0.025 0.672
vn -0.728 -0.609 0.315
vn -0.728 -0.609 0.315
vn -0.000 -0.985 -0.170
vn -0.000 -0.985 -0.170
vn 0.839 -0.176 -0.515
vn 0.839 -0.176 -0.515
vn 0.728 0.609 -0.315
vn 0.728 0.609 -0.315
vn -0.000 0.985 0.170
vn 0.000 0.985 0.170
vn -0.839 0.176 0.515
vn -0.839 0.176 0.515
vn -0.805 -0.568 0.172
vn -0.805 -0.568 0.172
vn -0.000 -0.988 -0.155
vn 0.000 -0.988 -0.155
vn 0.889 -0.311 -0.338
vn 0.889 -0.311 -0.338
vn 0.805 0.568 -0.172
vn 0.805 0.568 -0.172
vn 0.000 0.988 0.155
vn 0.000 0.988 0.155
vn -0.889 0.311 0.338
vn -0.889 0.311 0.338
vn -0.862 -0.506 0.014
vn -0.862 -0.506 0.014
vn -0.000 -0.989 -0.149
vn 0.000 -0.989 -0.149
vn 0.893 -0.421 -0.157
vn 0.893 -0.421 -0.157
vn 0.862 0.506 -0.014
vn 0.862 0.506 -0.014
vn 0.000 0.989 0.149
vn 0.000 0.989 0.149
vn -0.893 0.421 0.157
vn -0.893 0.421 0.157
vn -0.893 -0.421 -0.157
vn -0.893 -0.421 -0.157
vn -0.000 -0.989 -0.149
vn 0.000 -0.989 -0.149
vn 0.862 -0.506 0.014
vn 0.862 -0.506 0.014
vn 0.893 0.421 0.157
vn 0.893 0.421 0.157
vn 0.000 0.989 0.149
vn 0.000 0.989 0.149
vn -0.862 0.506 -0.014
vn -0.862 0.506 -0.014
vn -0.889 -0.311 -0.338
vn -0.889 -0.311 -0.338
vn -0.000 -0.988 -0.155
vn 0.000 -0.988 -0.155
vn 0.805 -0.568 0.172
vn 0.805 -0.568 0.172
vn 0.889 0.311 0.338
vn 0.889 0.311 0.338
vn 0.000 0.988 0.155
vn 0.000 0.988 0.155
vn -0.805 0.568 -0.172
vn -0.805 0.568 -0.172
vn -0.839 -0.176 -0.515
vn -0.839 -0.176 -0.515
vn -0.000 -0.985 -0.170
vn 0.000 -0.985 -0.170
vn 0.728 -0.609 0.315
vn 0.728 -0.609 0.315
vn 0.839 0.176 0.515
vn 0.839 0.176 0.515
vn -0.000 0.985 0.170
vn 0.000 0.985 0.170
vn -0.728 0.609 -0.315
vn -0.728 0.609 -0.315
vn -0.740 -0.025 -0.672
vn -0.740 -0.025 -0.672
vn -0.000 -0.980 -0.197
vn 0.000 -0.980 -0.197
vn 0.634 -0.633 0.444
vn 0.634 -0.633 0.444
vn 0.740 0.025 0.672
vn 0.740 0.025 0.672
vn -0.000 0.980 0.197
vn 0.000 0.980 0.197
vn -0.634 0.633 -0.444
vn -0.634 0.633 -0.444
vn -0.598 0.129 -0.791
vn -0.598 0.129 -0.791
vn -0.000 -0.969 -0.246
vn 0.000 -0.969 -0.246
vn 0.526 -0.640 0.561
vn 0.526 -0.640 0.561
vn 0.598 -0.129 0.791
vn 0.598 -0.129 0.791
vn -0.000 0.969 0.246
vn 0.000 0.969 0.246
vn -0.526 0.640 -0.561
vn -0.526 0.640 -0.561
vn -0.428 0.270 -0.862
vn -0.428 0.270 -0.862
vn -0.000 -0.939 -0.345
vn 0.000 -0.939 -0.345
vn 0.400 -0.630 0.666
vn 0.400 -0.630 0.666
vn 0.428 -0.270 0.862
vn 0.428 -0.270 0.862
vn -0.000 0.939 0.345
vn 0.000 0.939 0.345
vn -0.400 0.630 -0.666
vn -0.400 0.630 -0.666
vn -0.248 0.389 -0.887
vn -0.248 0.389 -0.887
vn -0.000 -0.812 -0.584
vn 0.000 -0.812 -0.584
vn 0.253 -0.601 0.758
vn 0.253 -0.601 0.758
vn 0.248 -0.389 0.887
vn 0.248 -0.389 0.887
vn -0.000 0.812 0.584
vn 0.000 0.812 0.584
vn -0.253 0.601 -0.758
vn -0.253 0.601 -0.758
vn -0.072 0.482 -0.873
vn -0.072 0.482 -0.873
vn 0.000 0.000 -1.000
vn 0.000 0.000 -1.000
vn 0.082 -0.547 0.833
vn 0.082 -0.547 0.833
vn 0.072 -0.482 0.873
vn 0.072 -0.482 0.873
vn 0.000 0.000 1.000
vn 0.000 0.000 1.000
vn -0.082 0.547 -0.833
vn -0.082 0.547 -0.833
vn 0.092 0.551 -0.829
vn 0.092 0.551 -0.829
vn 0.000 0.812 -0.584
vn 0.000 0.812 -0.584
vn -0.117 -0.461 0.880
vn -0.117 -0.461 0.880
vn -0.092 -0.551 0.829
vn -0.092 -0.551 0.829
vn 0.000 -0.812 0.584
vn 0.000 -0.812 0.584
vn 0.117 0.461 -0.880
vn 0.117 0.461 -0.880
vn 0.242 0.598 -0.764
vn 0.242 0.598 -0.764
vn 0.000 0.939 -0.345
vn 0.000 0.939 -0.345
vn -0.337 -0.333 0.880
vn -0.337 -0.333 0.880
vn -0.242 -0.598 0.764
vn -0.242 -0.598 0.764
vn 0.000 -0.939 0.345
vn 0.000 -0.939 0.345
vn 0.337 0.333 -0.880
vn 0.337 0.333 -0.880
vn 0.379 0.627 -0.681
vn 0.379 0.627 -0.681
vn 0.000 0.969 -0.246
vn -0.000 0.969 -0.246
vn -0.560 -0.164 0.812
vn -0.560 -0.164 0.812
vn -0.379 -0.627 0.681
vn -0.379 -0.627 0.681
vn 0.000 -0.969 0.246
vn -0.000 -0.969 0.246
vn 0.560 0.164 -0.812
vn 0.560 0.164 -0.812
vn 0.503 0.639 -0.582
vn 0.503 0.639 -0.582
vn -0.000 0.980 -0.197
vn 0.000 0.980 -0.197
vn -0.746 0.031 0.665
vn -0.746 0.031 0.665
vn -0.503 -0.639 0.582
vn -0.503 -0.639 0.582
vn -0.000 -0.980 0.197
vn -0.000 -0.980 0.197
vn 0.746 -0.031 -0.665
vn 0.746 -0.031 -0.665
vn 0.616 0.635 -0.465
vn 0.616 0.635 -0.465
vn 0.000 0.985 -0.170
vn 0.000 0.985 -0.170
vn -0.861 0.222 0.459
vn -0.861 0.222 0.459
vn -0.616 -0.635 0.465
vn -0.616 -0.635 0.465
vn -0.000 -0.985 0.170
vn -0.000 -0.985 0.170
vn 0.861 -0.222 -0.459
vn 0.861 -0.222 -0.459
vn 0.718 0.613 -0.330
vn 0.718 0.613 -0.330
vn 0.000 0.988 -0.155
vn 0.000 0.988 -0.155
vn -0.896 0.378 0.232
vn -0.896 0.378 0.232
vn -0.718 -0.613 0.330
vn -0.718 -0.613 0.330
vn -0.000 -0.988 0.155
vn -0.000 -0.988 0.155
vn 0.896 -0.378 -0.232
vn 0.896 -0.378 -0.232
vn 0.806 0.567 -0.170
vn 0.806 0.567 -0.170
vn 0.000 0.989 -0.149
vn 0.000 0.989 -0.149
vn -0.870 0.492 0.018
vn -0.870 0.492 0.018
vn -0.806 -0.567 0.170
vn -0.806 -0.567 0.170
vn -0.000 -0.989 0.149
vn -0.000 -0.989 0.149
vn 0.870 -0.492 -0.018
vn 0.870 -0.492 -0.018
vn 0.870 0.492 0.018
vn 0.870 0.492 0.018
vn -0.000 0.989 -0.149
vn 0.000 0.989 -0.149
vn -0.806 0.567 -0.170
vn -0.806 0.567 -0.170
vn -0.870 -0.492 -0.018
vn -0.870 -0.492 -0.018
vn -0.000 -0.989 0.149
vn -0.000 -0.989 0.149
vn 0.806 -0.567 0.170
vn 0.806 -0.567 0.170
vn 0.896 0.378 0.232
vn 0.896 0.378 0.232
vn 0.000 0.988 -0.155
vn 0.000 0.988 -0.155
vn -0.718 0.613 -0.330
vn -0.718 0.613 -0.330
vn -0.896 -0.378 -0.232
vn -0.896 -0.378 -0.232
vn -0.000 -0.988 0.155
vn -0.000 -0.988 0.155
vn 0.718 -0.613 0.330
vn 0.718 -0.613 0.330
vn 0.861 0.222 0.459
vn 0.861 0.222 0.459
vn 0.000 0.985 -0.170
vn -0.000 0.985 -0.170
vn -0.616 0.635 -0.465
vn -0.616 0.635 -0.465
vn -0.861 -0.222 -0.459
vn -0.861 -0.222 -0.459
vn -0.000 -0.985 0.170
vn -0.000 -0.985 0.170
vn 0.616 -0.635 0.465
vn 0.616 -0.635 0.465
vn 0.746 0.031 0.665
vn 0.746 0.031 0.665
vn -0.000 0.980 -0.197
vn 0.000 0.980 -0.197
vn -0.503 0.639 -0.582
vn -0.503 0.639 -0.582
vn -0.746 -0.031 -0.665
vn -0.746 -0.031 -0.665
vn -0.000 -0.980 0.197
vn -0.000 -0.980 0.197
vn 0.503 -0.639 0.582
vn 0.503 -0.639 0.582
vn 0.560 -0.164 0.812
vn 0.560 -0.164 0.812
vn 0.000 0.969 -0.246
vn 0.000 0.969 -0.246
vn -0.379 0.627 -0.681
vn -0.379 0.627 -0.681
vn -0.560 0.164 -0.812
vn -0.560 0.164 -0.812
vn -0.000 -0.969 0.246
vn -0.000 -0.969 0.246
vn 0.379 -0.627 0.681
vn 0.379 -0.627 0.681
vn 0.337 -0.333 0.880
vn 0.337 -0.333 0.880
vn 0.000 0.939 -0.345
vn 0.000 0.939 -0.345
vn -0.242 0.598 -0.764
vn -0.242 0.598 -0.764
vn -0.337 0.333 -0.880
vn -0.337 0.333 -0.880
vn -0.000 -0.939 0.345
vn -0.000 -0.939 0.345
vn 0.242 -0.598 0.764
vn 0.242 -0.598 0.764
vn 0.117 -0.461 0.880
vn 0.117 -0.461 0.880
vn 0.000 0.812 -0.584
vn 0.000 0.812 -0.584
vn -0.092 0.551 -0.829
vn -0.092 0.551 -0.829
vn -0.117 0.461 -0.880
vn -0.117 0.461 -0.880
vn -0.000 -0.812 0.584
vn -0.000 -0.812 0.584
vn 0.092 -0.551 0.829
vn 0.092 -0.551 0.829
vn -0.082 -0.547 0.833
vn -0.082 -0.547 0.833
vn 0.000 0.000 -1.000
vn 0.000 0.000 -1.000
vn 0.072 0.482 -0.873
vn 0.072 0.482 -0.873
vn 0.082 0.547 -0.833
vn 0.082 0.547 -0.833
vn -0.000 -0.000 1.000
vn 0.000 0.000 1.000
vn -0.072 -0.482 0.873
vn -0.072 -0.482 0.873
vn -0.253 -0.601 0.758
vn -0.253 -0.601 0.758
vn -0.000 -0.812 -0.584
vn -0.000 -0.812 -0.584
vn 0.248 0.389 -0.887
vn 0.248 0.389 -0.887
vn 0.253 0.601 -0.758
vn 0.253 0.601 -0.758
vn 0.000 0.812 0.584
vn 0.000 0.812 0.584
vn -0.248 -0.389 0.887
vn -0.248 -0.389 0.887
vn -0.400 -0.630 0.666
vn -0.400 -0.630 0.666
vn -0.000 -0.939 -0.345
vn -0.000 -0.939 -0.345
vn 0.428 0.270 -0.862
vn 0.428 0.270 -0.862
vn 0.400 0.630 -0.666
vn 0.400 0.630 -0.666
vn 0.000 0.939 0.345
vn 0.000 0.939 0.345
vn -0.428 -0.270 0.862
vn -0.428 -0.270 0.862
vn -0.526 -0.640 0.561
vn -0.526 -0.640 0.561
vn -0.000 -0.969 -0.246
vn -0.000 -0.969 -0.246
vn 0.598 0.129 -0.791
vn 0.598 0.129 -0.791
vn 0.526 0.640 -0.561
vn 0.526 0.640 -0.561
vn 0.000 0.969 0.246
vn 0.000 0.969 0.246
vn -0.598 -0.129 0.791
vn -0.598 -0.129 0.791
vn -0.634 -0.633 0.444
vn -0.634 -0.633 0.444
vn -0.000 -0.980 -0.197
vn -0.000 -0.980 -0.197
vn 0.740 -0.025 -0.672
vn 0.740 -0.025 -0.672
vn 0.634 0.633 -0.444
vn 0.634 0.633 -0.444
vn 0.000 0.980 0.197
vn 0.000 0.980 0.197
vn -0.740 0.025 0.672
vn -0.740 0.025 0.672
vn -0.728 -0.609 0.315
vn -0.728 -0.609 0.315
vn -0.000 -0.985 -0.170
vn -0.000 -0.985 -0.170
vn 0.839 -0.176 -0.515
vn 0.839 -0.176 -0.515
vn 0.728 0.609 -0.315
vn 0.728 0.609 -0.315
vn 0.000 0.985 0.170
vn 0.000 0.985 0.170
vn -0.839 0.176 0.515
vn -0.839 0.176 0.515
vn -0.805 -0.568 0.172
vn -0.805 -0.568 0.172
vn -0.000 -0.988 -0.155
vn -0.000 -0.988 -0.155
vn 0.889 -0.311 -0.338
vn 0.889 -0.311 -0.338
vn 0.805 0.568 -0.172
vn 0.805 0.568 -0.172
vn 0.000 0.988 0.155
vn 0.000 0.988 0.155
vn -0.889 0.311 0.338
vn -0.889 0.311 0.338
vn -0.862 -0.506 0.014
vn -0.862 -0.506 0.014
vn -0.000 -0.989 -0.149
vn -0.000 -0.989 -0.149
vn 0.893 -0.421 -0.157
vn 0.893 -0.421 -0.157
vn 0.862 0.506 -0.014
vn 0.862 0.506 -0.014
vn 0.000 0.989 0.149
vn 0.000 0.989 0.149
vn -0.893 0.421 0.157
vn -0.893 0.421 0.157
vn -0.893 -0.421 -0.157
vn -0.893 -0.421 -0.157
vn -0.000 -0.989 -0.149
vn -0.000 -0.989 -0.149
vn 0.862 -0.506 0.014
vn 0.862 -0.506 0.014
vn 0.893 0.421 0.157
vn 0.893 0.421 0.157
vn 0.000 0.989 0.149
vn 0.000 0.989 0.149
vn -0.862 0.506 -0.014
vn -0.862 0.506 -0.014
vn -0.889 -0.311 -0.338
vn -0.889 -0.311 -0.338
vn -0.000 -0.988 -0.155
vn 0.000 -0.988 -0.155
vn 0.805 -0.568 0.172
vn 0.805 -0.568 0.172
vn 0.889 0.311 0.338
vn 0.889 0.311 0.338
vn 0.000 0.988 0.155
vn 0.000 0.988 0.155
vn -0.805 0.568 -0.172
vn -0.805 0.568 -0.172
vn -0.839 -0.176 -0.515
vn -0.839 -0.176 -0.515
vn -0.000 -0.985 -0.170
vn -0.000 -0.985 -0.170
vn 0.728 -0.609 0.315
vn 0.728 -0.609 0.315
vn 0.839 0.176 0.515
vn 0.839 0.176 0.515
vn 0.000 0.985 0.170
vn 0.000 0.985 0.170
vn -0.728 0.609 -0.315
vn -0.728 0.609 -0.315
vn -0.740 -0.025 -0.672
vn -0.740 -0.025 -0.672
vn -0.000 -0.980 -0.197
vn -0.000 -0.980 -0.197
vn 0.634 -0.633 0.444
vn 0.634 -0.633 0.444
vn 0.740 0.025 0.672
vn 0.740 0.025 0.672
vn 0.000 0.980 0.197
vn 0.000 0.980 0.197
vn -0.634 0.633 -0.444
vn -0.634 0.633 -0.444
vn -0.598 0.129 -0.791
vn -0.598 0.129 -0.791
vn -0.000 -0.969 -0.246
vn 0.000 -0.969 -0.246
vn 0.526 -0.640 0.561
vn 0.526 -0.640 0.561
vn 0.598 -0.129 0.791
vn 0.598 -0.129 0.791
vn 0.000 0.969 0.246
vn 0.000 0.969 0.246
vn -0.526 0.640 -0.561
vn -0.526 0.640 -0.561
vn -0.428 0.270 -0.862
vn -0.428 0.270 -0.862
vn -0.000 -0.939 -0.345
vn 0.000 -0.939 -0.345
vn 0.400 -0.630 0.666
vn 0.400 -0.630 0.666
vn 0.428 -0.270 0.862
vn 0.428 -0.270 0.862
vn 0.000 0.939 0.345
vn 0.000 0.939 0.345
vn -0.400 0.630 -0.666
vn -0.400 0.630 -0.666
vn -0.248 0.389 -0.887
vn -0.248 0.389 -0.887
vn -0.000 -0.812 -0.584
vn 0.000 -0.812 -0.584
vn 0.253 -0.601 0.758
vn 0.253 -0.601 0.758
vn 0.248 -0.389 0.887
vn 0.248 -0.389 0.887
vn 0.000 0.812 0.584
vn 0.000 0.812 0.584
vn -0.253 0.601 -0.758
vn -0.253 0.601 -0.758
vn -0.072 0.482 -0.873
vn -0.072 0.482 -0.873
vn -0.000 -0.000 -1.000
vn 0.000 -0.000 -1.000
vn 0.082 -0.547 0.833
vn 0.082 -0.547 0.833
vn 0.072 -0.482 0.873
vn 0.072 -0.482 0.873
vn 0.000 0.000 1.000
vn 0.000 0.000 1.000
vn -0.082 0.547 -0.833
vn -0.082 0.547 -0.833
vn 0.092 0.551 -0.829
vn 0.092 0.551 -0.829
vn 0.000 0.812 -0.584
vn 0.000 0.812 -0.584
vn -0.117 -0.461 0.880
vn -0.117 -0.461 0.880
vn -0.092 -0.551 0.829
vn -0.092 -0.551 0.829
vn -0.000 -0.812 0.584
vn -0.000 -0.812 0.584
vn 0.117 0.461 -0.880
vn 0.117 0.461 -0.880
vn 0.242 0.598 -0.764
vn 0.242 0.598 -0.764
vn 0.000 0.939 -0.345
vn 0.000 0.939 -0.345
vn -0.337 -0.333 0.880
vn -0.337 -0.333 0.880
vn -0.242 -0.598 0.764
vn -0.242 -0.598 0.764
vn -0.000 -0.939 0.345
vn -0.000 -0.939 0.345
vn 0.337 0.333 -0.880
vn 0.337 0.333 -0.880
vn 0.379 0.627 -0.681
vn 0.379 0.627 -0.681
vn 0.000 0.969 -0.246
vn 0.000 0.969 -0.246
vn -0.560 -0.164 0.812
vn -0.560 -0.164 0.812
vn -0.379 -0.627 0.681
vn -0.379 -0.627 0.681
vn -0.000 -0.969 0.246
vn -0.000 -0.969 0.246
vn 0.560 0.164 -0.812
vn 0.560 0.164 -0.812
vn 0.503 0.639 -0.582
vn 0.503 0.639 -0.582
vn 0.000 0.980 -0.197
vn -0.000 0.980 -0.197
vn -0.746 0.031 0.665
vn -0.746 0.031 0.665
vn -0.503 -0.639 0.582
vn -0.503 -0.639 0.582
vn -0.000 -0.980 0.197
vn -0.000 -0.980 0.197
vn 0.746 -0.031 -0.665
vn 0.746 -0.031 -0.665
vn 0.616 0.635 -0.465
vn 0.616 0.635 -0.465
vn -0.000 0.985 -0.170
vn 0.000 0.985 -0.170
vn -0.861 0.222 0.459
vn -0.861 0.222 0.459
vn -0.616 -0.635 0.465
vn -0.616 -0.635 0.465
vn -0.000 -0.985 0.170
vn -0.000 -0.985 0.170
vn 0.861 -0.222 -0.459
vn 0.861 -0.222 -0.459
vn 0.718 0.613 -0.330
vn 0.718 0.613 -0.330
vn 0.000 0.988 -0.155
vn 0.000 0.988 -0.155
vn -0.896 0.378 0.232
vn -0.896 0.378 0.232
vn -0.718 -0.613 0.330
vn -0.718 -0.613 0.330
vn -0.000 -0.988 0.155
vn -0.000 -0.988 0.155
vn 0.896 -0.378 -0.232
vn 0.896 -0.378 -0.232
vn 0.806 0.567 -0.170
vn 0.806 0.567 -0.170
vn 0.000 0.989 -0.149
vn 0.000 0.989 -0.149
vn -0.870 0.492 0.018
vn -0.870 0.492 0.018
vn -0.806 -0.567 0.170
vn -0.806 -0.567 0.170
vn -0.000 -0.989 0.149
vn -0.000 -0.989 0.149
vn 0.870 -0.492 -0.018
vn 0.870 -0.492 -0.018
vn 0.870 0.492 0.018
vn 0.870 0.492 0.018
vn -0.000 0.989 -0.149
vn 0.000 0.989 -0.149
vn -0.806 0.567 -0.170
vn -0.806 0.567 -0.170
vn -0.870 -0.492 -0.018
vn -0.870 -0.492 -0.018
vn -0.000 -0.989 0.149
vn -0.000 -0.989 0.149
vn 0.806 -0.567 0.170
vn 0.806 -0.567 0.170
vn 0.896 0.378 0.232
vn 0.896 0.378 0.232
vn 0.000 0.988 -0.155
vn -0.000 0.988 -0.155
vn -0.718 0.613 -0.330
vn -0.718 0.613 -0.330
vn -0.896 -0.378 -0.232
vn -0.896 -0.378 -0.232
vn -0.000 -0.988 0.155
vn -0.000 -0.988 0.155
vn 0.718 -0.613 0.330
vn 0.718 -0.613 0.330
vn 0.861 0.222 0.459
vn 0.861 0.222 0.459
vn -0.000 0.985 -0.170
vn 0.000 0.985 -0.170
vn -0.616 0.635 -0.465
vn -0.616 0.635 -0.465
vn -0.861 -0.222 -0.459
vn -0.861 -0.222 -0.459
vn -0.000 -0.985 0.170
vn -0.000 -0.985 0.170
vn 0.616 -0.635 0.465
vn 0.616 -0.635 0.465
vn 0.746 0.031 0.665
vn 0.746 0.031 0.665
vn 0.000 0.980 -0.197
vn 0.000 0.980 -0.197
vn -0.503 0.639 -0.582
vn -0.503 0.639 -0.582
vn -0.746 -0.031 -0.665
vn -0.746 -0.031 -0.665
vn -0.000 -0.980 0.197
vn -0.000 -0.980 0.197
vn 0.503 -0.639 0.582
vn 0.503 -0.639 0.582
vn 0.560 -0.164 0.812
vn 0.560 -0.164 0.812
vn 0.000 0.969 -0.246
vn 0.000 0.969 -0.246
vn -0.379 0.627 -0.681
vn -0.379 0.627 -0.681
vn -0.560 0.164 -0.812
vn -0.560 0.164 -0.812
vn -0.000 -0.969 0.246
vn -0.000 -0.969 0.246
vn 0.379 -0.627 0.681
vn 0.379 -0.627 0.681
vn 0.337 -0.333 0.880
vn 0.337 -0.333 0.880
vn 0.000 0.939 -0.345
vn 0.000 0.939 -0.345
vn -0.242 0.598 -0.764
vn -0.242 0.598 -0.764
vn -0.337 0.333 -0.880
vn -0.337 0.333 -0.880
vn -0.000 -0.939 0.345
vn -0.000 -0.939 0.345
vn 0.242 -0.598 0.764
vn 0.242 -0.598 0.764
vn 0.117 -0.461 0.880
vn 0.117 -0.461 0.880
vn 0.000 0.812 -0.584
vn 0.000 0.812 -0.584
vn -0.092 0.551 -0.829
vn -0.092 0.551 -0.829
vn -0.117 0.461 -0.880
vn -0.117 0.461 -0.880
vn -0.000 -0.812 0.584
vn -0.000 -0.812 0.584
vn 0.092 -0.551 0.829
vn 0.092 -0.551 0.829
vn -0.082 -0.547 0.833
vn -0.082 -0.547 0.833
vn 0.000 0.000 -1.000
vn 0.000 0.000 -1.000
vn 0.072 0.482 -0.873
vn 0.072 0.482 -0.873
vn 0.082 0.547 -0.833
vn 0.082 0.547 -0.833
vn -0.000 -0.000 1.000
vn -0.000 -0.000 1.000
vn -0.072 -0.482 0.873
vn -0.072 -0.482 0.873
vn -0.253 -0.601 0.758
vn -0.253 -0.601 0.758
vn -0.000 -0.812 -0.584
vn 0.000 -0.812 -0.584
vn 0.248 0.389 -0.887
vn 0.248 0.389 -0.887
vn 0.253 0.601 -0.758
vn 0.253 0.601 -0.758
vn 0.000 0.812 0.584
vn 0.000 0.812 0.584
vn -0.248 -0.389 0.887
vn -0.248 -0.389 0.887
vn -0.400 -0.630 0.666
vn -0.400 -0.630 0.666
vn -0.000 -0.939 -0.345
vn 0.000 -0.939 -0.345
vn 0.428 0.270 -0.862
vn 0.428 0.270 -0.862
vn 0.400 0.630 -0.666
vn 0.400 0.630 -0.666
vn 0.000 0.939 0.345
vn 0.000 0.939 0.345
vn -0.428 -0.270 0.862
vn -0.428 -0.270 0.862
vn -0.526 -0.640 0.561
vn -0.526 -0.640 0.561
vn -0.000 -0.969 -0.246
vn 0.000 -0.969 -0.246
vn 0.598 0.129 -0.791
vn 0.598 0.129 -0.791
vn 0.526 0.640 -0.561
vn 0.526 0.640 -0.561
vn 0.000 0.969 0.246
vn 0.000 0.969 0.246
vn -0.598 -0.129 0.791
vn -0.598 -0.129 0.791
vn -0.634 -0.633 0.444
vn -0.634 -0.633 0.444
vn -0.000 -0.980 -0.197
vn 0.000 -0.980 -0.197
vn 0.740 -0.025 -0.672
vn 0.740 -0.025 -0.672
vn 0.634 0.633 -0.444
vn 0.634 0.633 -0.444
vn 0.000 0.980 0.197
vn 0.000 0.980 0.197
vn -0.740 0.025 0.672
vn -0.740 0.025 0.672
vn -0.728 -0.609 0.315
vn -0.728 -0.609 0.315
vn -0.000 -0.985 -0.170
vn 0.000 -0.985 -0.170
vn 0.839 -0.176 -0.515
vn 0.839 -0.176 -0.515
vn 0.728 0.609 -0.315
vn 0.728 0.609 -0.315
vn 0.000 0.985 0.170
vn 0.000 0.985 0.170
vn -0.839 0.176 0.515
vn -0.839 0.176 0.515
vn -0.805 -0.568 0.172
vn -0.805 -0.568 0.172
vn -0.000 -0.988 -0.155
vn 0.000 -0.988 -0.155
vn 0.889 -0.311 -0.338
vn 0.889 -0.311 -0.338
vn 0.805 0.568 -0.172
vn 0.805 0.568 -0.172
vn 0.000 0.988 0.155
vn 0.000 0.988 0.155
vn -0.889 0.311 0.338
vn -0.889 0.311 0.338
vn -0.862 -0.506 0.014
vn -0.862 -0.506 0.014
vn -0.000 -0.989 -0.149
vn 0.000 -0.989 -0.149
vn 0.893 -0.421 -0.157
vn 0.893 -0.421 -0.157
vn 0.862 0.506 -0.014
vn 0.862 0.506 -0.014
vn 0.000 0.989 0.149
vn 0.000 0.989 0.149
vn -0.893 0.421 0.157
vn -0.893 0.421 0.157
vn -0.893 -0.421 -0.157
vn -0.893 -0.421 -0.157
vn -0.000 -0.989 -0.149
vn 0.000 -0.989 -0.149
vn 0.862 -0.506 0.014
vn 0.862 -0.506 0.014
vn 0.893 0.421 0.157
vn 0.893 0.421 0.157
vn 0.000 0.989 0.149
vn 0.000 0.989 0.149
vn -0.862 0.506 -0.014
vn -0.862 0.506 -0.014
vn -0.889 -0.311 -0.338
vn -0.889 -0.311 -0.338
vn -0.000 -0.988 -0.155
vn 0.000 -0.988 -0.155
vn 0.805 -0.568 0.172
vn 0.805 -0.568 0.172
vn 0.889 0.311 0.338
vn 0.889 0.311 0.338
vn 0.000 0.988 0.155
vn 0.000 0.988 0.155
vn -0.805 0.568 -0.172
vn -0.805 0.568 -0.172
vn -0.839 -0.176 -0.515
vn -0.839 -0.176 -0.515
vn -0.000 -0.985 -0.170
vn -0.000 -0.985 -0.170
vn 0.728 -0.609 0.315
vn 0.728 -0.609 0.315
vn 0.839 0.176 0.515
vn 0.839 0.176 0.515
vn -0.000 0.985 0.170
vn 0.000 0.985 0.170
vn -0.728 0.609 -0.315
vn -0.728 0.609 -0.315
vn -0.740 -0.025 -0.672
vn -0.740 -0.025 -0.672
vn -0.000 -0.980 -0.197
vn -0.000 -0.980 -0.197
vn 0.634 -0.633 0.444
vn 0.634 -0.633 0.444
vn 0.740 0.025 0.672
vn 0.740 0.025 0.672
vn -0.000 0.980 0.197
vn 0.000 0.980 0.197
vn -0.634 0.633 -0.444
vn -0.634 0.633 -0.444
vn -0.598 0.129 -0.791
vn -0.598 0.129 -0.791
vn -0.000 -0.969 -0.246
vn 0.000 -0.969 -0.246
vn 0.526 -0.640 0.561
vn 0.526 -0.640 0.561
vn 0.598 -0.129 0.791
vn 0.598 -0.129 0.791
vn -0.000 0.969 0.246
vn 0.000 0.969 0.246
vn -0.526 0.640 -0.561
vn -0.526 0.640 -0.561
vn -0.428 0.270 -0.862
vn -0.428 0.270 -0.862
vn -0.000 -0.939 -0.345
vn 0.000 -0.939 -0.345
vn 0.400 -0.630 0.666
vn 0.400 -0.630 0.666
vn 0.428 -0.270 0.862
vn 0.428 -0.270 0.862
vn -0.000 0.939 0.345
vn 0.000 0.939 0.345
vn -0.400 0.630 -0.666
vn -0.400 0.630 -0.666
vn -0.248 0.389 -0.887
vn -0.248 0.389 -0.887
vn -0.000 -0.812 -0.584
vn 0.000 -0.812 -0.584
vn 0.253 -0.601 0.758
vn 0.253 -0.601 0.758
vn 0.248 -0.389 0.887
vn 0.248 -0.389 0.887
vn -0.000 0.812 0.584
vn 0.000 0.812 0.584
vn -0.253 0.601 -0.758
vn -0.253 0.601 -0.758
vn -0.072 0.482 -0.873
vn -0.072 0.482 -0.873
vn 0.000 0.000 -1.000
vn 0.000 0.000 -1.000
vn 0.082 -0.547 0.833
vn 0.082 -0.547 0.833
vn 0.072 -0.482 0.873
vn 0.072 -0.482 0.873
vn 0.000 -0.000 1.000
vn 0.000 -0.000 1.000
vn -0.082 0.547 -0.833
vn -0.082 0.547 -0.833
vn 0.092 0.551 -0.829
vn 0.092 0.551 -0.829
vn 0.000 0.812 -0.584
vn 0.000 0.812 -0.584
vn -0.117 -0.461 0.880
vn -0.117 -0.461 0.880
vn -0.092 -0.551 0.829
vn -0.092 -0.551 0.829
vn 0.000 -0.812 0.584
vn 0.000 -0.812 0.584
vn 0.117 0.461 -0.880
vn 0.117 0.461 -0.880
vn 0.242 0.598 -0.764
vn 0.242 0.598 -0.764
vn 0.000 0.939 -0.345
vn 0.000 0.939 -0.345
vn -0.337 -0.333 0.880
vn -0.337 -0.333 0.880
vn -0.242 -0.598 0.764
vn -0.242 -0.598 0.764
vn 0.000 -0.939 0.345
vn 0.000 -0.939 0.345
vn 0.337 0.333 -0.880
vn 0.337 0.333 -0.880
vn 0.379 0.627 -0.681
vn 0.379 0.627 -0.681
vn 0.000 0.969 -0.246
vn 0.000 0.969 -0.246
vn -0.560 -0.164 0.812
vn -0.560 -0.164 0.812
vn -0.379 -0.627 0.681
vn -0.379 -0.627 0.681
vn 0.000 -0.969 0.246
vn 0.000 -0.969 0.246
vn 0.560 0.164 -0.812
vn 0.560 0.164 -0.812
vn 0.503 0.639 -0.582
vn 0.503 0.639 -0.582
vn 0.000 0.980 -0.197
vn -0.000 0.980 -0.197
vn -0.746 0.031 0.665
vn -0.746 0.031 0.665
vn -0.503 -0.639 0.582
vn -0.503 -0.639 0.582
vn 0.000 -0.980 0.197
vn 0.000 -0.980 0.197
vn 0.746 -0.031 -0.665
vn 0.746 -0.031 -0.665
vn 0.616 0.635 -0.465
vn 0.616 0.635 -0.465
vn -0.000 0.985 -0.170
vn 0.000 0.985 -0.170
vn -0.861 0.222 0.459
vn -0.861 0.222 0.459
vn -0.616 -0.635 0.465
vn -0.616 -0.635 0.465
vn 0.000 -0.985 0.170
vn 0.000 -0.985 0.170
vn 0.861 -0.222 -0.459
vn 0.861 -0.222 -0.459
vn 0.718 0.613 -0.330
vn 0.718 0.613 -0.330
vn 0.000 0.988 -0.155
vn 0.000 0.988 -0.155
vn -0.896 0.378 0.232
vn -0.896 0.378 0.232
vn -0.718 -0.613 0.330
vn -0.718 -0.613 0.330
vn 0.000 -0.988 0.155
vn 0.000 -0.988 0.155
vn 0.896 -0.378 -0.232
vn 0.896 -0.378 -0.232
vn 0.806 0.567 -0.170
vn 0.806 0.567 -0.170
vn 0.000 0.989 -0.149
vn 0.000 0.989 -0.149
vn -0.870 0.492 0.018
vn -0.870 0.492 0.018
vn -0.806 -0.567 0.170
vn -0.806 -0.567 0.170
vn 0.000 -0.989 0.149
vn 0.000 -0.989 0.149
vn 0.870 -0.492 -0.018
vn 0.870 -0.492 -0.018
f 1//1 2//1 8//1
f 1//2 8//2 7//2
f 2//3 3//3 9//3
f 2//4 9//4 8//4
f 3//5 4//5 10//5
f 3//6 10//6 9//6
f 4//7 5//7 11//7
f 4//8 11//8 10//8
f 5//9 6//9 12//9
f 5//10 12//10 11//10
f 6//11 1//11 7//11
f 6//12 7//12 12//12
f 7//13 8//13 14//13
f 7//14 14//14 13//14
f 8//15 9//15 15//15
f 8//16 15//16 14//16
f 9//17 10//17 16//17
f 9//18 16//18 15//18
f 10//19 11//19 17//19
f 10//20 17//20 16//20
f 11//21 12//21 18//21
f 11//22 18//22 17//22
f 12//23 7//23 13//23
f 12//24 13//24 18//24
f 13//25 14//25 20//25
f 13//26 20//26 19//26
f 14//27 15//27 21//27
f 14//28 21//28 20//28
f 15//29 16//29 22//29
f 15//30 22//30 21//30
f 16//31 17//31 23//31
f 16//32 23//32 22//32
f 17//33 18//33 24//33
f 17//34 24//34 23//34
f 18//35 13//35 19//35
f 18//36 19//36 24//36
f 19//37 20//37 26//37
f 19//38 26//38 25//38
f 20//39 21//39 27//39
f 20//40 27//40 26//40
f 21//41 22//41 28//41
f 21//42 28//42 27//42
f 22//43 23//43 29//43
f 22//44 29//44 28//44
f 23//45 24//45 30//45
f 23//46 30//46 29//46
f 24//47 19//47 25//47
f 24//48 25//48 30//48
f 25//49 26//49 32//49
f 25//50 32//50 31//50
f 26//51 27//51 33//51
f 26//52 33//52 32//52
f 27//53 28//53 34//53
f 27//54 34//54 33//54
f 28//55 29//55 35//55
f 28//56 35//56 34//56
f 29//57 30//57 36//57
f 29//58 36//58 35//58
f 30//59 25//59 31//59
f 30//60 31//60 36//60
f 31//61 32//61 38//61
f 31//62 38//62 37//62
f 32//63 33//63 39//63
f 32//64 39//64 38//64
f 33//65 34//65 40//65
f 33//66 40//66 39//66
f 34//67 35//67 41//67
f 34//68 41//68 40//68
f 35//69 36//69 42//69
f 35//70 42//70 41//70
f 36//71 31//71 37//71
f 36//72 37//72 42//72
f 37//73 38//73 44//73
f 37//74 44//74 43//74
f 38//75 39//75 45//75
f 38//76 45//76 44//76
f 39//77 40//77 46//77
f 39//78 46//78 45//78
f 40//79 41//79 47//79
f 40//80 47//80 46//80
f 41//81 42//81 48//81
f 41//82 48//82 47//82
f 42//83 37//83 43//83
f 42//84 43//84 48//84
f 43//85 44//85 50//85
f 43//86 50//86 49//86
f 44//87 45//87 51//87
f 44//88 51//88 50//88
f 45//89 46//89 52//89
f 45//90 52//90 51//90
f 46//91 47//91 53//91
f 46//92 53//92 52//92
f 47//93 48//93 54//93
f 47//94 54//94 53//94
f 48//95 43//95 49//95
f 48//96 49//96 54//96
f 49//97 50//97 56//97
f 49//98 56//98 55//98
f 50//99 51//99 57//99
f 50//100 57//100 56//100
f 51//101 52//101 58//101
f 51//102 58//102 57//102
f 52//103 53//103 59//103
f 52//104 59//104 58//104
f 53//105 54//105 60//105
f 53//106 60//106 59//106
f 54//107 49//107 55//107
f 54//108 55//108 60//108
f 55//109 56//109 62//109
f 55//110 62//110 61//110
f 56//111 57//111 63//111
f 56//112 63//112 62//112
f 57//113 58//113 64//113
f 57//114 64//114 63//114
f 58//115 59//115 65//115
f 58//116 65//116 64//116
f 59//117 60//117 66//117
f 59//118 66//118 65//118
f 60//119 55//119 61//119
f 60//120 61//120 66//120
f 61//121 62//121 68//121
f 61//122 68//122 67//122
f 62//123 63//123 69//123
f 62//124 69//124 68//124
f 63//125 64//125 70//125
f 63//126 70//126 69//126
f 64//127 65//127 71//127
f 64//128 71//128 70//128
f 65//129 66//129 72//129
f 65//130 72//130 71//130
f 66//131 61//131 67//131
f 66//132 67//132 72//132
f 67//133 68//133 74//133
f 67//134 74//134 73//134
f 68//135 69//135 75//135
f 68//136 75//136 74//136
f 69//137 70//137 76//137
f 69//138 76//138 75//138
f 70//139 71//139 77//139
f 70//140 77//140 76//140
f 71//141 72//141 78//141
f 71//142 78//142 77//142
f 72//143 67//143 73//143
f 72//144 73//144 78//144
f 73//145 74//145 80//145
f 73//146 80//146 79//146
f 74//147 75//147 81//147
f 74//148 81//148 80//148
f 75//149 76//149 82//149
f 75//150 82//150 81//150
f 76//151 77//151 83//151
f 76//152 83//152 82//152
f 77//153 78//153 84//153
f 77//154 84//154 83//154
f 78//155 73//155 79//155
f 78//156 79//156 84//156
f 79//157 80//157 86//157
f 79//158 86//158 85//158
f 80//159 81//159 87//159
f 80//160 87//160 86//160
f 81//161 82//161 88//161
f 81//162 88//162 87//162
f 82//163 83//163 89//163
f 82//164 89//164 88//164
f 83//165 84//165 90//165
f 83//166 90//166 89//166
f 84//167 79//167 85//167
f 84//168 85//168 90//168
f 85//169 86//169 92//169
f 85//170 92//170 91//170
f 86//171 87//171 93//171
f 86//172 93//172 92//172
f 87//173 88//173 94//173
f 87//174 94//174 93//174
f 88//175 89//175 95//175
f 88//176 95//176 94//176
f 89//177 90//177 96//177
f 89//178 96//178 95//178
f 90//179 85//179 91//179
f 90//180 91//180 96//180
f 91//181 92//181 98//181
f 91//182 98//182 97//182
f 92//183 93//183 99//183
f 92//184 99//184 98//184
f 93//185 94//185 100//185
f 93//186 100//186 99//186
f 94//187 95//187 101//187
f 94//188 101//188 100//188
f 95//189 96//189 102//189
f 95//190 102//190 101//190
f 96//191 91//191 97//191
f 96//192 97//192 102//192
f 97//193 98//193 104//193
f 97//194 104//194 103//194
f 98//195 99//195 105//195
f 98//196 105//196 104//196
f 99//197 100//197 106//197
f 99//198 106//198 105//198
f 100//199 101//199 107//199
f 100//200 107//200 106//200
f 101//201 102//201 108//201
f 101//202 108//202 107//202
f 102//203 97//203 103//203
f 102//204 103//204 108//204
f 103//205 104//205 110//205
f 103//206 110//206 109//206
f 104//207 105//207 111//207
f 104//208 111//208 110//208
f 105//209 106//209 112//209
f 105//210 112//210 111//210
f 106//211 107//211 113//211
f 106//212 113//212 112//212
f 107//213 108//213 114//213
f 107//214 114//214 113//214
f 108//215 103//215 109//215
f 108//216 109//216 114//216
f 109//217 110//217 116//217
f 109//218 116//218 115//218
f 110//219 111//219 117//219
f 110//220 117//220 116//220
f 111//221 112//221 118//221
f 111//222 118//222 117//222
f 112//223 113//223 119//223
f 112//224 119//224 118//224
f 113//225 114//225 120//225
f 113//226 120//226 119//226
f 114//227 109//227 115//227
f 114//228 115//228 120//228
f 115//229 116//229 122//229
f 115//230 122//230 121//230
f 116//231 117//231 123//231
f 116//232 123//232 122//232
f 117//233 118//233 124//233
f 117//234 124//234 123//234
f 118//235 119//235 125//235
f 118//236 125//236 124//236
f 119//237 120//237 126//237
f 119//238 126//238 125//238
f 120//239 115//239 121//239
f 120//240 121//240 126//240
f 121//241 122//241 128//241
f 121//242 128//242 127//242
f 122//243 123//243 129//243
f 122//244 129//244 128//244
f 123//245 124//245 130//245
f 123//246 130//246 129//246
f 124//247 125//247 131//247
f 124//248 131//248 130//248
f 125//249 126//249 132//249
f 125//250 132//250 131//250
f 126//251 121//251 127//251
f 126//252 127//252 132//252
f 127//253 128//253 134//253
f 127//254 134//254 133//254
f 128//255 129//255 135//255
f 128//256 135//256 134//256
f 129//257 130//257 136//257
f 129//258 136//258 135//258
f 130//259 131//259 137//259
f 130//260 137//260 136//260
f 131//261 132//261 138//261
f 131//262 138//262 137//262
f 132//263 127//263 133//263
f 132//264 133//264 138//264
f 133//265 134//265 140//265
f 133//266 140//266 139//266
f 134//267 135//267 141//267
f 134//268 141//268 140//268
f 135//269 136//269 142//269
f 135//270 142//270 141//270
f 136//271 137//271 143//271
f 136//272 143//272 142//272
f 137//273 138//273 144//273
f 137//274 144//274 143//274
f 138//275 133//275 139//275
f 138//276 139//276 144//276
f 139//277 140//277 146//277
f 139//278 146//278 145//278
f 140//279 141//279 147//279
f 140//280 147//280 146//280
f 141//281 142//281 148//281
f 141//282 148//282 147//282
f 142//283 143//283 149//283
f 142//284 149//284 148//284
f 143//285 144//285 150//285
f 143//286 150//286 149//286
f 144//287 139//287 145//287
f 144//288 145//288 150//288
f 145//289 146//289 152//289
f 145//290 152//290 151//290
f 146//291 147//291 153//291
f 146//292 153//292 152//292
f 147//293 148//293 154//293
f 147//294 154//294 153//294
f 148//295 149//295 155//295
f 148//296 155//296 154//296
f 149//297 150//297 156//297
f 149//298 156//298 155//298
f 150//299 145//299 151//299
f 150//300 151//300 156//300
f 151//301 152//301 158//301
f 151//302 158//302 157//302
f 152//303 153//303 159//303
f 152//304 159//304 158//304
f 153//305 154//305 160//305
f 153//306 160//306 159//306
f 154//307 155//307 161//307
f 154//308 161//308 160//308
f 155//309 156//309 162//309
f 155//310 162//310 161//310
f 156//311 151//311 157//311
f 156//312 157//312 162//312
f 157//313 158//313 164//313
f 157//314 164//314 163//314
f 158//315 159//315 165//315
f 158//316 165//316 164//316
f 159//317 160//317 166//317
f 159//318 166//318 165//318
f 160//319 161//319 167//319
f 160//320 167//320 166//320
f 161//321 162//321 168//321
f 161//322 168//322 167//322
f 162//323 157//323 163//323
f 162//324 163//324 168//324
f 163//325 164//325 170//325
f 163//326 170//326 169//326
f 164//327 165//327 171//327
f 164//328 171//328 170//328
f 165//329 166//329 172//329
f 165//330 172//330 171//330
f 166//331 167//331 173//331
f 166//332 173//332 172//332
f 167//333 168//333 174//333
f 167//334 174//334 173//334
f 168//335 163//335 169//335
f 168//336 169//336 174//336
f 169//337 170//337 176//337
f 169//338 176//338 175//338
f 170//339 171//339 177//339
f 170//340 177//340 176//340
f 171//341 172//341 178//341
f 171//342 178//342 177//342
f 172//343 173//343 179//343
f 172//344 179//344 178//344
f 173//345 174//345 180//345
f 173//346 180//346 179//346
f 174//347 169//347 175//347
f 174//348 175//348 180//348
f 175//349 176//349 182//349
f 175//350 182//350 181//350
f 176//351 177//351 183//351
f 176//352 183//352 182//352
f 177//353 178//353 184//353
f 177//354 184//354 183//354
f 178//355 179//355 185//355
f 178//356 185//356 184//356
f 179//357 180//357 186//357
f 179//358 186//358 185//358
f 180//359 175//359 181//359
f 180//360 181//360 186//360
f 181//361 182//361 188//361
f 181//362 188//362 187//362
f 182//363 183//363 189//363
f 182//364 189//364 188//364
f 183//365 184//365 190//365
f 183//366 190//366 189//366
f 184//367 185//367 191//367
f 184//368 191//368 190//368
f 185//369 186//369 192//369
f 185//370 192//370 191//370
f 186//371 181//371 187//371
f 186//372 187//372 192//372
f 187//373 188//373 194//373
f 187//374 194//374 193//374
f 188//375 189//375 195//375
f 188//376 195//376 194//376
f 189//377 190//377 196//377
f 189//378 196//378 195//378
f 190//379 191//379 197//379
f 190//380 197//380 196//380
f 191//381 192//381 198//381
f 191//382 198//382 197//382
f 192//383 187//383 193//383
f 192//384 193//384 198//384
f 193//385 194//385 200//385
f 193//386 200//386 199//386
f 194//387 195//387 201//387
f 194//388 201//388 200//388
f 195//389 196//389 202//389
f 195//390 202//390 201//390
f 196//391 197//391 203//391
f 196//392 203//392 202//392
f 197//393 198//393 204//393
f 197//394 204//394 203//394
f 198//395 193//395 199//395
f 198//396 199//396 204//396
f 199//397 200//397 206//397
f 199//398 206//398 205//398
f 200//399 201//399 207//399
f 200//400 207//400 206//400
f 201//401 202//401 208//401
f 201//402 208//402 207//402
f 202//403 203//403 209//403
f 202//404 209//404 208//404
f 203//405 204//405 210//405
f 203//406 210//406 209//406
f 204//407 199//407 205//407
f 204//408 205//408 210//408
f 205//409 206//409 212//409
f 205//410 212//410 211//410
f 206//411 207//411 213//411
f 206//412 213//412 212//412
f 207//413 208//413 214//413
f 207//414 214//414 213//414
f 208//415 209//415 215//415
f 208//416 215//416 214//416
f 209//417 210//417 216//417
f 209//418 216//418 215//418
f 210//419 205//419 211//419
f 210//420 211//420 216//420
f 211//421 212//421 218//421
f 211//422 218//422 217//422
f 212//423 213//423 219//423
f 212//424 219//424 218//424
f 213//425 214//425 220//425
f 213//426 220//426 219//426
f 214//427 215//427 221//427
f 214//428 221//428 220//428
f 215//429 216//429 222//429
f 215//430 222//430 221//430
f 216//431 211//431 217//431
f 216//432 217//432 222//432
f 217//433 218//433 224//433
f 217//434 224//434 223//434
f 218//435 219//435 225//435
f 218//436 225//436 224//436
f 219//437 220//437 226//437
f 219//438 226//438 225//438
f 220//439 221//439 227//439
f 220//440 227//440 226//440
f 221//441 222//441 228//441
f 221//442 228//442 227//442
f 222//443 217//443 223//443
f 222//444 223//444 228//444
f 223//445 224//445 230//445
f 223//446 230//446 229//446
f 224//447 225//447 231//447
f 224//448 231//448 230//448
f 225//449 226//449 232//449
f 225//450 232//450 231//450
f 226//451 227//451 233//451
f 226//452 233//452 232//452
f 227//453 228//453 234//453
f 227//454 234//454 233//454
f 228//455 223//455 229//455
f 228//456 229//456 234//456
f 229//457 230//457 236//457
f 229//458 236//458 235//458
f 230//459 231//459 237//459
f 230//460 237//460 236//460
f 231//461 232//461 238//461
f 231//462 238//462 237//462
f 232//463 233//463 239//463
f 232//464 239//464 238//464
f 233//465 234//465 240//465
f 233//466 240//466 239//466
f 234//467 229//467 235//467
f 234//468 235//468 240//468
f 235//469 236//469 242//469
f 235//470 242//470 241//470
f 236//471 237//471 243//471
f 236//472 243//472 242//472
f 237//473 238//473 244//473
f 237//474 244//474 243//474
f 238//475 239//475 245//475
f 238//476 245//476 244//476
f 239//477 240//477 246//477
f 239//478 246//478 245//478
f 240//479 235//479 241//479
f 240//480 241//480 246//480
f 241//481 242//481 248//481
f 241//482 248//482 247//482
f 242//483 243//483 249//483
f 242//484 249//484 248//484
f 243//485 244//485 250//485
f 243//486 250//486 249//486
f 244//487 245//487 251//487
f 244//488 251//488 250//488
f 245//489 246//489 252//489
f 245//490 252//490 251//490
f 246//491 241//491 247//491
f 246//492 247//492 252//492
f 247//493 248//493 254//493
f 247//494 254//494 253//494
f 248//495 249//495 255//495
f 248//496 255//496 254//496
f 249//497 250//497 256//497
f 249//498 256//498 255//498
f 250//499 251//499 257//499
f 250//500 257//500 256//500
f 251//501 252//501 258//501
f 251//502 258//502 257//502
f 252//503 247//503 253//503
f 252//504 253//504 258//504
f 253//505 254//505 260//505
f 253//506 260//506 259//506
f 254//507 255//507 261//507
f 254//508 261//508 260//508
f 255//509 256//509 262//509
f 255//510 262//510 261//510
f 256//511 257//511 263//511
f 256//512 263//512 262//512
f 257//513 258//513 264//513
f 257//514 264//514 263//514
f 258//515 253//515 259//515
f 258//516 259//516 264//516
f 259//517 260//517 266//517
f 259//518 266//518 265//518
f 260//519 261//519 267//519
f 260//520 267//520 266//520
f 261//521 262//521 268//521
f 261//522 268//522 267//522
f 262//523 263//523 269//523
f 262//524 269//524 268//524
f 263//525 264//525 270//525
f 263//526 270//526 269//526
f 264//527 259//527 265//527
f 264//528 265//528 270//528
f 265//529 266//529 272//529
f 265//530 272//530 271//530
f 266//531 267//531 273//531
f 266//532 273//532 272//532
f 267//533 268//533 274//533
f 267//534 274//534 273//534
f 268//535 269//535 275//535
f 268//536 275//536 274//536
f 269//537 270//537 276//537
f 269//538 276//538 275//538
f 270//539 265//539 271//539
f 270//540 271//540 276//540
f 271//541 272//541 278//541
f 271//542 278//542 277//542
f 272//543 273//543 279//543
f 272//544 279//544 278//544
f 273//545 274//545 280//545
f 273//546 280//546 279//546
f 274//547 275//547 281//547
f 274//548 281//548 280//548
f 275//549 276//549 282//549
f 275//550 282//550 281//550
f 276//551 271//551 277//551
f 276//552 277//552 282//552
f 277//553 278//553 284//553
f 277//554 284//554 283//554
f 278//555 279//555 285//555
f 278//556 285//556 284//556
f 279//557 280//557 286//557
f 279//558 286//558 285//558
f 280//559 281//559 287//559
f 280//560 287//560 286//560
f 281//561 282//561 288//561
f 281//562 288//562 287//562
f 282//563 277//563 283//563
f 282//564 283//564 288//564
f 283//565 284//565 290//565
f 283//566 290//566 289//566
f 284//567 285//567 291//567
f 284//568 291//568 290//568
f 285//569 286//569 292//569
f 285//570 292//570 291//570
f 286//571 287//571 293//571
f 286//572 293//572 292//572
f 287//573 288//573 294//573
f 287//574 294//574 293//574
f 288//575 283//575 289//575
f 288//576 289//576 294//576
f 289//577 290//577 296//577
f 289//578 296//578 295//578
f 290//579 291//579 297//579
f 290//580 297//580 296//580
f 291//581 292//581 298//581
f 291//582 298//582 297//582
f 292//583 293//583 299//583
f 292//584 299//584 298//584
f 293//585 294//585 300//585
f 293//586 300//586 299//586
f 294//587 289//587 295//587
f 294//588 295//588 300//588
f 295//589 296//589 302//589
f 295//590 302//590 301//590
f 296//591 297//591 303//591
f 296//592 303//592 302//592
f 297//593 298//593 304//593
f 297//594 304//594 303//594
f 298//595 299//595 305//595
f 298//596 305//596 304//596
f 299//597 300//597 306//597
f 299//598 306//598 305//598
f 300//599 295//599 301//599
f 300//600 301//600 306//600
f 301//601 302//601 308//601
f 301//602 308//602 307//602
f 302//603 303//603 309//603
f 302//604 309//604 308//604
f 303//605 304//605 310//605
f 303//606 310//606 309//606
f 304//607 305//607 311//607
f 304//608 311//608 310//608
f 305//609 306//609 312//609
f 305//610 312//610 311//610
f 306//611 301//611 307//611
f 306//612 307//612 312//612
f 307//613 308//613 314//613
f 307//614 314//614 313//614
f 308//615 309//615 315//615
f 308//616 315//616 314//616
f 309//617 310//617 316//617
f 309//618 316//618 315//618
f 310//619 311//619 317//619
f 310//620 317//620 316//620
f 311//621 312//621 318//621
f 311//622 318//622 317//622
f 312//623 307//623 313//623
f 312//624 313//624 318//624
f 313//625 314//625 320//625
f 313//626 320//626 319//626
f 314//627 315//627 321//627
f 314//628 321//628 320//628
f 315//629 316//629 322//629
f 315//630 322//630 321//630
f 316//631 317//631 323//631
f 316//632 323//632 322//632
f 317//633 318//633 324//633
f 317//634 324//634 323//634
f 318//635 313//635 319//635
f 318//636 319//636 324//636
f 319//637 320//637 326//637
f 319//638 326//638 325//638
f 320//639 321//639 327//639
f 320//640 327//640 326//640
f 321//641 322//641 328//641
f 321//642 328//642 327//642
f 322//643 323//643 329//643
f 322//644 329//644 328//644
f 323//645 324//645 330//645
f 323//646 330//646 329//646
f 324//647 319//647 325//647
f 324//648 325//648 330//648
f 325//649 326//649 332//649
f 325//650 332//650 331//650
f 326//651 327//651 333//651
f 326//652 333//652 332//652
f 327//653 328//653 334//653
f 327//654 334//654 333//654
f 328//655 329//655 335//655
f 328//656 335//656 334//656
f 329//657 330//657 336//657
f 329//658 336//658 335//658
f 330//659 325//659 331//659
f 330//660 331//660 336//660
f 331//661 332//661 338//661
f 331//662 338//662 337//662
f 332//663 333//663 339//663
f 332//664 339//664 338//664
f 333//665 334//665 340//665
f 333//666 340//666 339//666
f 334//667 335//667 341//667
f 334//668 341//668 340//668
f 335//669 336//669 342//669
f 335//670 342//670 341//670
f 336//671 331//671 337//671
f 336//672 337//672 342//672
f 337//673 338//673 344//673
f 337//674 344//674 343//674
f 338//675 339//675 345//675
f 338//676 345//676 344//676
f 339//677 340//677 346//677
f 339//678 346//678 345//678
f 340//679 341//679 347//679
f 340//680 347//680 346//680
f 341//681 342//681 348//681
f 341//682 348//682 347//682
f 342//683 337//683 343//683
f 342//684 343//684 348//684
f 343//685 344//685 350//685
f 343//686 350//686 349//686
f 344//687 345//687 351//687
f 344//688 351//688 350//688
f 345//689 346//689 352//689
f 345//690 352//690 351//690
f 346//691 347//691 353//691
f 346//692 353//692 352//692
f 347//693 348//693 354//693
f 347//694 354//694 353//694
f 348//695 343//695 349//695
f 348//696 349//696 354//696
f 349//697 350//697 356//697
f 349//698 356//698 355//698
f 350//699 351//699 357//699
f 350//700 357//700 356//700
f 351//701 352//701 358//701
f 351//702 358//702 357//702
f 352//703 353//703 359//703
f 352//704 359//704 358//704
f 353//705 354//705 360//705
f 353//706 360//706 359//706
f 354//707 349//707 355//707
f 354//708 355//708 360//708
f 355//709 356//709 362//709
f 355//710 362//710 361//710
f 356//711 357//711 363//711
f 356//712 363//712 362//712
f 357//713 358//713 364//713
f 357//714 364//714 363//714
f 358//715 359//715 365//715
f 358//716 365//716 364//716
f 359//717 360//717 366//717
f 359//718 366//718 365//718
f 360//719 355//719 361//719
f 360//720 361//720 366//720
f 361//721 362//721 368//721
f 361//722 368//722 367//722
f 362//723 363//723 369//723
f 362//724 369//724 368//724
f 363//725 364//725 370//725
f 363//726 370//726 369//726
f 364//727 365//727 371//727
f 364//728 371//728 370//728
f 365//729 366//729 372//729
f 365//730 372//730 371//730
f 366//731 361//731 367//731
f 366//732 367//732 372//732
f 367//733 368//733 374//733
f 367//734 374//734 373//734
f 368//735 369//735 375//735
f 368//736 375//736 374//736
f 369//737 370//737 376//737
f 369//738 376//738 375//738
f 370//739 371//739 377//739
f 370//740 377//740 376//740
f 371//741 372//741 378//741
f 371//742 378//742 377//742
f 372//743 367//743 373//743
f 372//744 373//744 378//744
f 373//745 374//745 380//745
f 373//746 380//746 379//746
f 374//747 375//747 381//747
f 374//748 381//748 380//748
f 375//749 376//749 382//749
f 375//750 382//750 381//750
f 376//751 377//751 383//751
f 376//752 383//752 382//752
f 377//753 378//753 384//753
f 377//754 384//754 383//754
f 378//755 373//755 379//755
f 378//756 379//756 384//756
f 379//757 380//757 386//757
f 379//758 386//758 385//758
f 380//759 381//759 387//759
f 380//760 387//760 386//760
f 381//761 382//761 388//761
f 381//762 388//762 387//762
f 382//763 383//763 389//763
f 382//764 389//764 388//764
f 383//765 384//765 390//765
f 383//766 390//766 389//766
f 384//767 379//767 385//767
f 384//768 385//768 390//768
f 385//769 386//769 392//769
f 385//770 392//770 391//770
f 386//771 387//771 393//771
f 386//772 393//772 392//772
f 387//773 388//773 394//773
f 387//774 394//774 393//774
f 388//775 389//775 395//775
f 388//776 395//776 394//776
f 389//777 390//777 396//777
f 389//778 396//778 395//778
f 390//779 385//779 391//779
f 390//780 391//780 396//780
f 391//781 392//781 398//781
f 391//782 398//782 397//782
f 392//783 393//783 399//783
f 392//784 399//784 398//784
f 393//785 394//785 400//785
f 393//786 400//786 399//786
f 394//787 395//787 401//787
f 394//788 401//788 400//788
f 395//789 396//789 402//789
f 395//790 402//790 401//790
f 396//791 391//791 397//791
f 396//792 397//792 402//792
f 397//793 398//793 404//793
f 397//794 404//794 403//794
f 398//795 399//795 405//795
f 398//796 405//796 404//796
f 399//797 400//797 406//797
f 399//798 406//798 405//798
f 400//799 401//799 407//799
f 400//800 407//800 406//800
f 401//801 402//801 408//801
f 401//802 408//802 407//802
f 402//803 397//803 403//803
f 402//804 403//804 408//804
f 403//805 404//805 410//805
f 403//806 410//806 409//806
f 404//807 405//807 411//807
f 404//808 411//808 410//808
f 405//809 406//809 412//809
f 405//810 412//810 411//810
f 406//811 407//811 413//811
f 406//812 413//812 412//812
f 407//813 408//813 414//813
f 407//814 414//814 413//814
f 408//815 403//815 409//815
f 408//816 409//816 414//816
f 409//817 410//817 416//817
f 409//818 416//818 415//818
f 410//819 411//819 417//819
f 410//820 417//820 416//820
f 411//821 412//821 418//821
f 411//822 418//822 417//822
f 412//823 413//823 419//823
f 412//824 419//824 418//824
f 413//825 414//825 420//825
f 413//826 420//826 419//826
f 414//827 409//827 415//827
f 414//828 415//828 420//828
f 415//829 416//829 422//829
f 415//830 422//830 421//830
f 416//831 417//831 423//831
f 416//832 423//832 422//832
f 417//833 418//833 424//833
f 417//834 424//834 423//834
f 418//835 419//835 425//835
f 418//836 425//836 424//836
f 419//837 420//837 426//837
f 419//838 426//838 425//838
f 420//839 415//839 421//839
f 420//840 421//840 426//840
f 421//841 422//841 428//841
f 421//842 428//842 427//842
f 422//843 423//843 429//843
f 422//844 429//844 428//844
f 423//845 424//845 430//845
f 423//846 430//846 429//846
f 424//847 425//847 431//847
f 424//848 431//848 430//848
f 425//849 426//849 432//849
f 425//850 432//850 431//850
f 426//851 421//851 427//851
f 426//852 427//852 432//852
f 427//853 428//853 434//853
f 427//854 434//854 433//854
f 428//855 429//855 435//855
f 428//856 435//856 434//856
f 429//857 430//857 436//857
f 429//858 436//858 435//858
f 430//859 431//859 437//859
f 430//860 437//860 436//860
f 431//861 432//861 438//861
f 431//862 438//862 437//862
f 432//863 427//863 433//863
f 432//864 433//864 438//864
f 433//865 434//865 440//865
f 433//866 440//866 439//866
f 434//867 435//867 441//867
f 434//868 441//868 440//868
f 435//869 436//869 442//869
f 435//870 442//870 441//870
f 436//871 437//871 443//871
f 436//872 443//872 442//872
f 437//873 438//873 444//873
f 437//874 444//874 443//874
f 438//875 433//875 439//875
f 438//876 439//876 444//876
f 439//877 440//877 446//877
f 439//878 446//878 445//878
f 440//879 441//879 447//879
f 440//880 447//880 446//880
f 441//881 442//881 448//881
f 441//882 448//882 447//882
f 442//883 443//883 449//883
f 442//884 449//884 448//884
f 443//885 444//885 450//885
f 443//886 450//886 449//886
f 444//887 439//887 445//887
f 444//888 445//888 450//888
f 445//889 446//889 452//889
f 445//890 452//890 451//890
f 446//891 447//891 453//891
f 446//892 453//892 452//892
f 447//893 448//893 454//893
f 447//894 454//894 453//894
f 448//895 449//895 455//895
f 448//896 455//896 454//896
f 449//897 450//897 456//897
f 449//898 456//898 455//898
f 450//899 445//899 451//899
f 450//900 451//900 456//900
f 451//901 452//901 458//901
f 451//902 458//902 457//902
f 452//903 453//903 459//903
f 452//904 459//904 458//904
f 453//905 454//905 460//905
f 453//906 460//906 459//906
f 454//907 455//907 461//907
f 454//908 461//908 460//908
f 455//909 456//909 462//909
f 455//910 462//910 461//910
f 456//911 451//911 457//911
f 456//912 457//912 462//912
f 457//913 458//913 464//913
f 457//914 464//914 463//914
f 458//915 459//915 465//915
f 458//916 465//916 464//916
f 459//917 460//917 466//917
f 459//918 466//918 465//918
f 460//919 461//919 467//919
f 460//920 467//920 466//920
f 461//921 462//921 468//921
f 461//922 468//922 467//922
f 462//923 457//923 463//923
f 462//924 463//924 468//924
f 463//925 464//925 470//925
f 463//926 470//926 469//926
f 464//927 465//927 471//927
f 464//928 471//928 470//928
f 465//929 466//929 472//929
f 465//930 472//930 471//930
f 466//931 467//931 473//931
f 466//932 473//932 472//932
f 467//933 468//933 474//933
f 467//934 474//934 473//934
f 468//935 463//935 469//935
f 468//936 469//936 474//936
f 469//937 470//937 476//937
f 469//938 476//938 475//938
f 470//939 471//939 477//939
f 470//940 477//940 476//940
f 471//941 472//941 478//941
f 471//942 478//942 477//942
f 472//943 473//943 479//943
f 472//944 479//944 478//944
f 473//945 474//945 480//945
f 473//946 480//946 479//946
f 474//947 469//947 475//947
f 474//948 475//948 480//948
f 475//949 476//949 482//949
f 475//950 482//950 481//950
f 476//951 477//951 483//951
f 476//952 483//952 482//952
f 477//953 478//953 484//953
f 477//954 484//954 483//954
f 478//955 479//955 485//955
f 478//956 485//956 484//956
f 479//957 480//957 486//957
f 479//958 486//958 485//958
f 480//959 475//959 481//959
f 480//960 481//960 486//960
f 481//961 482//961 488//961
f 481//962 488//962 487//962
f 482//963 483//963 489//963
f 482//964 489//964 488//964
f 483//965 484//965 490//965
f 483//966 490//966 489//966
f 484//967 485//967 491//967
f 484//968 491//968 490//968
f 485//969 486//969 492//969
f 485//970 492//970 491//970
f 486//971 481//971 487//971
f 486//972 487//972 492//972
f 487//973 488//973 494//973
f 487//974 494//974 493//974
f 488//975 489//975 495//975
f 488//976 495//976 494//976
f 489//977 490//977 496//977
f 489//978 496//978 495//978
f 490//979 491//979 497//979
f 490//980 497//980 496//980
f 491//981 492//981 498//981
f 491//982 498//982 497//982
f 492//983 487//983 493//983
f 492//984 493//984 498//984
f 493//985 494//985 500//985
f 493//986 500//986 499//986
f 494//987 495//987 501//987
f 494//988 501//988 500//988
f 495//989 496//989 502//989
f 495//990 502//990 501//990
f 496//991 497//991 503//991
f 496//992 503//992 502//992
f 497//993 498//993 504//993
f 497//994 504//994 503//994
f 498//995 493//995 499//995
f 498//996 499//996 504//996
f 499//997 500//997 506//997
f 499//998 506//998 505//998
f 500//999 501//999 507//999
f 500//1000 507//1000 506//1000
f 501//1001 502//1001 508//1001
f 501//1002 508//1002 507//1002
f 502//1003 503//1003 509//1003
f 502//1004 509//1004 508//1004
f 503//1005 504//1005 510//1005
f 503//1006 510//1006 509//1006
f 504//1007 499//1007 505//1007
f 504//1008 505//1008 510//1008
f 505//1009 506//1009 512//1009
f 505//1010 512//1010 511//1010
f 506//1011 507//1011 513//1011
f 506//1012 513//1012 512//1012
f 507//1013 508//1013 514//1013
f 507//1014 514//1014 513//1014
f 508//1015 509//1015 515//1015
f 508//1016 515//1016 514//1016
f 509//1017 510//1017 516//1017
f 509//1018 516//1018 515//1018
f 510//1019 505//1019 511//1019
f 510//1020 511//1020 516//1020
f 511//1021 512//1021 518//1021
f 511//1022 518//1022 517//1022
f 512//1023 513//1023 519//1023
f 512//1024 519//1024 518//1024
f 513//1025 514//1025 520//1025
f 513//1026 520//1026 519//1026
f 514//1027 515//1027 521//1027
f 514//1028 521//1028 520//1028
f 515//1029 516//1029 522//1029
f 515//1030 522//1030 521//1030
f 516//1031 511//1031 517//1031
f 516//1032 517//1032 522//1032
f 517//1033 518//1033 524//1033
f 517//1034 524//1034 523//1034
f 518//1035 519//1035 525//1035
f 518//1036 525//1036 524//1036
f 519//1037 520//1037 526//1037
f 519//1038 526//1038 525//1038
f 520//1039 521//1039 527//1039
f 520//1040 527//1040 526//1040
f 521//1041 522//1041 528//1041
f 521//1042 528//1042 527//1042
f 522//1043 517//1043 523//1043
f 522//1044 523//1044 528//1044
f 523//1045 524//1045 530//1045
f 523//1046 530//1046 529//1046
f 524//1047 525//1047 531//1047
f 524//1048 531//1048 530//1048
f 525//1049 526//1049 532//1049
f 525//1050 532//1050 531//1050
f 526//1051 527//1051 533//1051
f 526//1052 533//1052 532//1052
f 527//1053 528//1053 534//1053
f 527//1054 534//1054 533//1054
f 528//1055 523//1055 529//1055
f 528//1056 529//1056 534//1056
f 529//1057 530//1057 536//1057
f 529//1058 536//1058 535//1058
f 530//1059 531//1059 537//1059
f 530//1060 537//1060 536//1060
f 531//1061 532//1061 538//1061
f 531//1062 538//1062 537//1062
f 532//1063 533//1063 539//1063
f 532//1064 539//1064 538//1064
f 533//1065 534//1065 540//1065
f 533//1066 540//1066 539//1066
f 534//1067 529//1067 535//1067
f 534//1068 535//1068 540//1068
f 535//1069 536//1069 542//1069
f 535//1070 542//1070 541//1070
f 536//1071 537//1071 543//1071
f 536//1072 543//1072 542//1072
f 537//1073 538//1073 544//1073
f 537//1074 544//1074 543//1074
f 538//1075 539//1075 545//1075
f 538//1076 545//1076 544//1076
f 539//1077 540//1077 546//1077
f 539//1078 546//1078 545//1078
f 540//1079 535//1079 541//1079
f 540//1080 541//1080 546//1080
