# Zentra XR sample model: icosahedron
v -0.26287 0.42533 0.00000
v 0.26287 0.42533 0.00000
v -0.26287 -0.42533 0.00000
v 0.26287 -0.42533 0.00000
v 0.00000 -0.26287 0.42533
v 0.00000 0.26287 0.42533
v 0.00000 -0.26287 -0.42533
v 0.00000 0.26287 -0.42533
v 0.42533 0.00000 -0.26287
v 0.42533 0.00000 0.26287
v -0.42533 0.00000 -0.26287
v -0.42533 0.00000 0.26287
v -0.34410 0.21266 0.13143
v -0.21266 0.13143 0.34410
v -0.13143 0.34410 0.21266
v 0.13143 0.34410 0.21266
v 0.00000 0.42533 0.00000
v 0.13143 0.34410 -0.21266
v -0.13143 0.34410 -0.21266
v -0.21266 0.13143 -0.34410
v -0.34410 0.21266 -0.13143
v -0.42533 0.00000 0.00000
v 0.21266 0.13143 0.34410
v 0.34410 0.21266 0.13143
v -0.21266 -0.13143 0.34410
v 0.00000 0.00000 0.42533
v -0.34410 -0.21266 -0.13143
v -0.34410 -0.21266 0.13143
v 0.00000 0.00000 -0.42533
v -0.21266 -0.13143 -0.34410
v 0.34410 0.21266 -0.13143
v 0.21266 0.13143 -0.34410
v 0.34410 -0.21266 0.13143
v 0.21266 -0.13143 0.34410
v 0.13143 -0.34410 0.21266
v -0.13143 -0.34410 0.21266
v 0.00000 -0.42533 0.00000
v -0.13143 -0.34410 -0.21266
v 0.13143 -0.34410 -0.21266
v 0.21266 -0.13143 -0.34410
v 0.34410 -0.21266 -0.13143
v 0.42533 0.00000 0.00000
v -0.30348 0.31899 0.06572
v -0.23776 0.27838 0.17205
v -0.19715 0.38471 0.10633
v -0.31899 0.06572 0.30348
v -0.27838 0.17205 0.23776
v -0.38471 0.10633 0.19715
v -0.06572 0.30348 0.31899
v -0.17205 0.23776 0.27838
v -0.10633 0.19715 0.38471
v -0.06572 0.38471 0.10633
v -0.13143 0.42533 0.00000
v 0.06572 0.30348 0.31899
v 0.00000 0.34410 0.21266
v 0.13143 0.42533 0.00000
v 0.06572 0.38471 0.10633
v 0.19715 0.38471 0.10633
v -0.06572 0.38471 -0.10633
v -0.19715 0.38471 -0.10633
v 0.19715 0.38471 -0.10633
v 0.06572 0.38471 -0.10633
v -0.06572 0.30348 -0.31899
v 0.00000 0.34410 -0.21266
v 0.06572 0.30348 -0.31899
v -0.23776 0.27838 -0.17205
v -0.30348 0.31899 -0.06572
v -0.10633 0.19715 -0.38471
v -0.17205 0.23776 -0.27838
v -0.38471 0.10633 -0.19715
v -0.27838 0.17205 -0.23776
v -0.31899 0.06572 -0.30348
v -0.34410 0.21266 0.00000
v -0.42533 0.00000 -0.13143
v -0.38471 0.10633 -0.06572
v -0.38471 0.10633 0.06572
v -0.42533 0.00000 0.13143
v 0.23776 0.27838 0.17205
v 0.30348 0.31899 0.06572
v 0.10633 0.19715 0.38471
v 0.17205 0.23776 0.27838
v 0.38471 0.10633 0.19715
v 0.27838 0.17205 0.23776
v 0.31899 0.06572 0.30348
v -0.10633 0.06572 0.38471
v 0.00000 0.13143 0.42533
v -0.31899 -0.06572 0.30348
v -0.21266 0.00000 0.34410
v 0.00000 -0.13143 0.42533
v -0.10633 -0.06572 0.38471
v -0.10633 -0.19715 0.38471
v -0.38471 -0.10633 0.06572
v -0.38471 -0.10633 0.19715
v -0.38471 -0.10633 -0.19715
v -0.38471 -0.10633 -0.06572
v -0.30348 -0.31899 0.06572
v -0.34410 -0.21266 0.00000
v -0.30348 -0.31899 -0.06572
v -0.21266 0.00000 -0.34410
v -0.31899 -0.06572 -0.30348
v 0.00000 0.13143 -0.42533
v -0.10633 0.06572 -0.38471
v -0.10633 -0.19715 -0.38471
v -0.10633 -0.06572 -0.38471
v 0.00000 -0.13143 -0.42533
v 0.17205 0.23776 -0.27838
v 0.10633 0.19715 -0.38471
v 0.30348 0.31899 -0.06572
v 0.23776 0.27838 -0.17205
v 0.31899 0.06572 -0.30348
v 0.27838 0.17205 -0.23776
v 0.38471 0.10633 -0.19715
v 0.30348 -0.31899 0.06572
v 0.23776 -0.27838 0.17205
v 0.19715 -0.38471 0.10633
v 0.31899 -0.06572 0.30348
v 0.27838 -0.17205 0.23776
v 0.38471 -0.10633 0.19715
v 0.06572 -0.30348 0.31899
v 0.17205 -0.23776 0.27838
v 0.10633 -0.19715 0.38471
v 0.06572 -0.38471 0.10633
v 0.13143 -0.42533 0.00000
v -0.06572 -0.30348 0.31899
v 0.00000 -0.34410 0.21266
v -0.13143 -0.42533 0.00000
v -0.06572 -0.38471 0.10633
v -0.19715 -0.38471 0.10633
v 0.06572 -0.38471 -0.10633
v 0.19715 -0.38471 -0.10633
v -0.19715 -0.38471 -0.10633
v -0.06572 -0.38471 -0.10633
v 0.06572 -0.30348 -0.31899
v 0.00000 -0.34410 -0.21266
v -0.06572 -0.30348 -0.31899
v 0.23776 -0.27838 -0.17205
v 0.30348 -0.31899 -0.06572
v 0.10633 -0.19715 -0.38471
v 0.17205 -0.23776 -0.27838
v 0.38471 -0.10633 -0.19715
v 0.27838 -0.17205 -0.23776
v 0.31899 -0.06572 -0.30348
v 0.34410 -0.21266 0.00000
v 0.42533 0.00000 -0.13143
v 0.38471 -0.10633 -0.06572
v 0.38471 -0.10633 0.06572
v 0.42533 0.00000 0.13143
v 0.10633 -0.06572 0.38471
v 0.21266 0.00000 0.34410
v 0.10633 0.06572 0.38471
v -0.23776 -0.27838 0.17205
v -0.17205 -0.23776 0.27838
v -0.27838 -0.17205 0.23776
v -0.17205 -0.23776 -0.27838
v -0.23776 -0.27838 -0.17205
v -0.27838 -0.17205 -0.23776
v 0.21266 0.00000 -0.34410
v 0.10633 -0.06572 -0.38471
v 0.10633 0.06572 -0.38471
v 0.38471 0.10633 0.06572
v 0.38471 0.10633 -0.06572
v 0.34410 0.21266 0.00000
vn -0.5774 0.5774 0.5774
vn -0.5774 0.5774 0.5774
vn -0.5774 0.5774 0.5774
vn -0.5774 0.5774 0.5774
vn -0.5774 0.5774 0.5774
vn -0.5774 0.5774 0.5774
vn -0.5774 0.5774 0.5774
vn -0.5774 0.5774 0.5774
vn -0.5774 0.5774 0.5774
vn -0.5774 0.5774 0.5774
vn -0.5774 0.5774 0.5774
vn -0.5774 0.5774 0.5774
vn -0.5774 0.5774 0.5774
vn -0.5774 0.5774 0.5774
vn -0.5774 0.5774 0.5774
vn -0.5774 0.5774 0.5774
vn -0.0000 0.9342 0.3568
vn 0.0000 0.9342 0.3568
vn 0.0000 0.9342 0.3568
vn -0.0000 0.9342 0.3568
vn 0.0000 0.9342 0.3568
vn 0.0000 0.9342 0.3568
vn -0.0000 0.9342 0.3568
vn 0.0000 0.9342 0.3568
vn 0.0000 0.9342 0.3568
vn -0.0000 0.9342 0.3568
vn 0.0000 0.9342 0.3568
vn 0.0000 0.9342 0.3568
vn -0.0000 0.9342 0.3568
vn 0.0000 0.9342 0.3568
vn 0.0000 0.9342 0.3568
vn 0.0000 0.9342 0.3568
vn 0.0000 0.9342 -0.3568
vn 0.0000 0.9342 -0.3568
vn 0.0000 0.9342 -0.3568
vn 0.0000 0.9342 -0.3568
vn 0.0000 0.9342 -0.3568
vn 0.0000 0.9342 -0.3568
vn 0.0000 0.9342 -0.3568
vn 0.0000 0.9342 -0.3568
vn 0.0000 0.9342 -0.3568
vn 0.0000 0.9342 -0.3568
vn 0.0000 0.9342 -0.3568
vn 0.0000 0.9342 -0.3568
vn 0.0000 0.9342 -0.3568
vn 0.0000 0.9342 -0.3568
vn 0.0000 0.9342 -0.3568
vn 0.0000 0.9342 -0.3568
vn -0.5774 0.5774 -0.5774
vn -0.5774 0.5774 -0.5774
vn -0.5774 0.5774 -0.5774
vn -0.5774 0.5774 -0.5774
vn -0.5774 0.5774 -0.5774
vn -0.5774 0.5774 -0.5774
vn -0.5774 0.5774 -0.5774
vn -0.5774 0.5774 -0.5774
vn -0.5774 0.5774 -0.5774
vn -0.5774 0.5774 -0.5774
vn -0.5774 0.5774 -0.5774
vn -0.5774 0.5774 -0.5774
vn -0.5774 0.5774 -0.5774
vn -0.5774 0.5774 -0.5774
vn -0.5774 0.5774 -0.5774
vn -0.5774 0.5774 -0.5774
vn -0.9342 0.3568 0.0000
vn -0.9342 0.3568 0.0000
vn -0.9342 0.3568 0.0000
vn -0.9342 0.3568 0.0000
vn -0.9342 0.3568 0.0000
vn -0.9342 0.3568 0.0000
vn -0.9342 0.3568 0.0000
vn -0.9342 0.3568 0.0000
vn -0.9342 0.3568 0.0000
vn -0.9342 0.3568 0.0000
vn -0.9342 0.3568 0.0000
vn -0.9342 0.3568 0.0000
vn -0.9342 0.3568 0.0000
vn -0.9342 0.3568 0.0000
vn -0.9342 0.3568 0.0000
vn -0.9342 0.3568 0.0000
vn 0.5774 0.5774 0.5774
vn 0.5774 0.5774 0.5774
vn 0.5774 0.5774 0.5774
vn 0.5774 0.5774 0.5774
vn 0.5774 0.5774 0.5774
vn 0.5774 0.5774 0.5774
vn 0.5774 0.5774 0.5774
vn 0.5774 0.5774 0.5774
vn 0.5774 0.5774 0.5774
vn 0.5774 0.5774 0.5774
vn 0.5774 0.5774 0.5774
vn 0.5774 0.5774 0.5774
vn 0.5774 0.5774 0.5774
vn 0.5774 0.5774 0.5774
vn 0.5774 0.5774 0.5774
vn 0.5774 0.5774 0.5774
vn -0.3568 0.0000 0.9342
vn -0.3568 0.0000 0.9342
vn -0.3568 0.0000 0.9342
vn -0.3568 0.0000 0.9342
vn -0.3568 0.0000 0.9342
vn -0.3568 0.0000 0.9342
vn -0.3568 0.0000 0.9342
vn -0.3568 0.0000 0.9342
vn -0.3568 0.0000 0.9342
vn -0.3568 0.0000 0.9342
vn -0.3568 0.0000 0.9342
vn -0.3568 0.0000 0.9342
vn -0.3568 0.0000 0.9342
vn -0.3568 0.0000 0.9342
vn -0.3568 0.0000 0.9342
vn -0.3568 0.0000 0.9342
vn -0.9342 -0.3568 -0.0000
vn -0.9342 -0.3568 0.0000
vn -0.9342 -0.3568 0.0000
vn -0.9342 -0.3568 0.0000
vn -0.9342 -0.3568 0.0000
vn -0.9342 -0.3568 0.0000
vn -0.9342 -0.3568 -0.0000
vn -0.9342 -0.3568 0.0000
vn -0.9342 -0.3568 0.0000
vn -0.9342 -0.3568 -0.0000
vn -0.9342 -0.3568 0.0000
vn -0.9342 -0.3568 -0.0000
vn -0.9342 -0.3568 0.0000
vn -0.9342 -0.3568 0.0000
vn -0.9342 -0.3568 -0.0000
vn -0.9342 -0.3568 0.0000
vn -0.3568 0.0000 -0.9342
vn -0.3568 -0.0000 -0.9342
vn -0.3568 0.0000 -0.9342
vn -0.3568 -0.0000 -0.9342
vn -0.3568 -0.0000 -0.9342
vn -0.3568 0.0000 -0.9342
vn -0.3568 0.0000 -0.9342
vn -0.3568 0.0000 -0.9342
vn -0.3568 0.0000 -0.9342
vn -0.3568 0.0000 -0.9342
vn -0.3568 -0.0000 -0.9342
vn -0.3568 0.0000 -0.9342
vn -0.3568 -0.0000 -0.9342
vn -0.3568 0.0000 -0.9342
vn -0.3568 0.0000 -0.9342
vn -0.3568 -0.0000 -0.9342
vn 0.5774 0.5774 -0.5774
vn 0.5774 0.5774 -0.5774
vn 0.5774 0.5774 -0.5774
vn 0.5774 0.5774 -0.5774
vn 0.5774 0.5774 -0.5774
vn 0.5774 0.5774 -0.5774
vn 0.5774 0.5774 -0.5774
vn 0.5774 0.5774 -0.5774
vn 0.5774 0.5774 -0.5774
vn 0.5774 0.5774 -0.5774
vn 0.5774 0.5774 -0.5774
vn 0.5774 0.5774 -0.5774
vn 0.5774 0.5774 -0.5774
vn 0.5774 0.5774 -0.5774
vn 0.5774 0.5774 -0.5774
vn 0.5774 0.5774 -0.5774
vn 0.5774 -0.5774 0.5774
vn 0.5774 -0.5774 0.5774
vn 0.5774 -0.5774 0.5774
vn 0.5774 -0.5774 0.5774
vn 0.5774 -0.5774 0.5774
vn 0.5774 -0.5774 0.5774
vn 0.5774 -0.5774 0.5774
vn 0.5774 -0.5774 0.5774
vn 0.5774 -0.5774 0.5774
vn 0.5774 -0.5774 0.5774
vn 0.5774 -0.5774 0.5774
vn 0.5774 -0.5774 0.5774
vn 0.5774 -0.5774 0.5774
vn 0.5774 -0.5774 0.5774
vn 0.5774 -0.5774 0.5774
vn 0.5774 -0.5774 0.5774
vn 0.0000 -0.9342 0.3568
vn 0.0000 -0.9342 0.3568
vn 0.0000 -0.9342 0.3568
vn 0.0000 -0.9342 0.3568
vn 0.0000 -0.9342 0.3568
vn 0.0000 -0.9342 0.3568
vn 0.0000 -0.9342 0.3568
vn 0.0000 -0.9342 0.3568
vn 0.0000 -0.9342 0.3568
vn 0.0000 -0.9342 0.3568
vn 0.0000 -0.9342 0.3568
vn 0.0000 -0.9342 0.3568
vn 0.0000 -0.9342 0.3568
vn 0.0000 -0.9342 0.3568
vn 0.0000 -0.9342 0.3568
vn 0.0000 -0.9342 0.3568
vn -0.0000 -0.9342 -0.3568
vn 0.0000 -0.9342 -0.3568
vn 0.0000 -0.9342 -0.3568
vn 0.0000 -0.9342 -0.3568
vn 0.0000 -0.9342 -0.3568
vn 0.0000 -0.9342 -0.3568
vn -0.0000 -0.9342 -0.3568
vn 0.0000 -0.9342 -0.3568
vn 0.0000 -0.9342 -0.3568
vn -0.0000 -0.9342 -0.3568
vn 0.0000 -0.9342 -0.3568
vn -0.0000 -0.9342 -0.3568
vn 0.0000 -0.9342 -0.3568
vn 0.0000 -0.9342 -0.3568
vn -0.0000 -0.9342 -0.3568
vn 0.0000 -0.9342 -0.3568
vn 0.5774 -0.5774 -0.5774
vn 0.5774 -0.5774 -0.5774
vn 0.5774 -0.5774 -0.5774
vn 0.5774 -0.5774 -0.5774
vn 0.5774 -0.5774 -0.5774
vn 0.5774 -0.5774 -0.5774
vn 0.5774 -0.5774 -0.5774
vn 0.5774 -0.5774 -0.5774
vn 0.5774 -0.5774 -0.5774
vn 0.5774 -0.5774 -0.5774
vn 0.5774 -0.5774 -0.5774
vn 0.5774 -0.5774 -0.5774
vn 0.5774 -0.5774 -0.5774
vn 0.5774 -0.5774 -0.5774
vn 0.5774 -0.5774 -0.5774
vn 0.5774 -0.5774 -0.5774
vn 0.9342 -0.3568 0.0000
vn 0.9342 -0.3568 0.0000
vn 0.9342 -0.3568 0.0000
vn 0.9342 -0.3568 0.0000
vn 0.9342 -0.3568 0.0000
vn 0.9342 -0.3568 0.0000
vn 0.9342 -0.3568 0.0000
vn 0.9342 -0.3568 0.0000
vn 0.9342 -0.3568 0.0000
vn 0.9342 -0.3568 0.0000
vn 0.9342 -0.3568 0.0000
vn 0.9342 -0.3568 0.0000
vn 0.9342 -0.3568 0.0000
vn 0.9342 -0.3568 0.0000
vn 0.9342 -0.3568 0.0000
vn 0.9342 -0.3568 0.0000
vn 0.3568 -0.0000 0.9342
vn 0.3568 0.0000 0.9342
vn 0.3568 0.0000 0.9342
vn 0.3568 -0.0000 0.9342
vn 0.3568 0.0000 0.9342
vn 0.3568 0.0000 0.9342
vn 0.3568 -0.0000 0.9342
vn 0.3568 0.0000 0.9342
vn 0.3568 0.0000 0.9342
vn 0.3568 -0.0000 0.9342
vn 0.3568 0.0000 0.9342
vn 0.3568 0.0000 0.9342
vn 0.3568 -0.0000 0.9342
vn 0.3568 0.0000 0.9342
vn 0.3568 0.0000 0.9342
vn 0.3568 0.0000 0.9342
vn -0.5774 -0.5774 0.5774
vn -0.5774 -0.5774 0.5774
vn -0.5774 -0.5774 0.5774
vn -0.5774 -0.5774 0.5774
vn -0.5774 -0.5774 0.5774
vn -0.5774 -0.5774 0.5774
vn -0.5774 -0.5774 0.5774
vn -0.5774 -0.5774 0.5774
vn -0.5774 -0.5774 0.5774
vn -0.5774 -0.5774 0.5774
vn -0.5774 -0.5774 0.5774
vn -0.5774 -0.5774 0.5774
vn -0.5774 -0.5774 0.5774
vn -0.5774 -0.5774 0.5774
vn -0.5774 -0.5774 0.5774
vn -0.5774 -0.5774 0.5774
vn -0.5774 -0.5774 -0.5774
vn -0.5774 -0.5774 -0.5774
vn -0.5774 -0.5774 -0.5774
vn -0.5774 -0.5774 -0.5774
vn -0.5774 -0.5774 -0.5774
vn -0.5774 -0.5774 -0.5774
vn -0.5774 -0.5774 -0.5774
vn -0.5774 -0.5774 -0.5774
vn -0.5774 -0.5774 -0.5774
vn -0.5774 -0.5774 -0.5774
vn -0.5774 -0.5774 -0.5774
vn -0.5774 -0.5774 -0.5774
vn -0.5774 -0.5774 -0.5774
vn -0.5774 -0.5774 -0.5774
vn -0.5774 -0.5774 -0.5774
vn -0.5774 -0.5774 -0.5774
vn 0.3568 0.0000 -0.9342
vn 0.3568 0.0000 -0.9342
vn 0.3568 0.0000 -0.9342
vn 0.3568 0.0000 -0.9342
vn 0.3568 0.0000 -0.9342
vn 0.3568 0.0000 -0.9342
vn 0.3568 0.0000 -0.9342
vn 0.3568 0.0000 -0.9342
vn 0.3568 0.0000 -0.9342
vn 0.3568 0.0000 -0.9342
vn 0.3568 0.0000 -0.9342
vn 0.3568 0.0000 -0.9342
vn 0.3568 0.0000 -0.9342
vn 0.3568 0.0000 -0.9342
vn 0.3568 0.0000 -0.9342
vn 0.3568 0.0000 -0.9342
vn 0.9342 0.3568 0.0000
vn 0.9342 0.3568 -0.0000
vn 0.9342 0.3568 0.0000
vn 0.9342 0.3568 0.0000
vn 0.9342 0.3568 -0.0000
vn 0.9342 0.3568 0.0000
vn 0.9342 0.3568 0.0000
vn 0.9342 0.3568 -0.0000
vn 0.9342 0.3568 0.0000
vn 0.9342 0.3568 0.0000
vn 0.9342 0.3568 -0.0000
vn 0.9342 0.3568 0.0000
vn 0.9342 0.3568 0.0000
vn 0.9342 0.3568 -0.0000
vn 0.9342 0.3568 0.0000
vn 0.9342 0.3568 -0.0000
f 1//1 43//1 45//1
f 13//2 44//2 43//2
f 15//3 45//3 44//3
f 43//4 44//4 45//4
f 12//5 46//5 48//5
f 14//6 47//6 46//6
f 13//7 48//7 47//7
f 46//8 47//8 48//8
f 6//9 49//9 51//9
f 15//10 50//10 49//10
f 14//11 51//11 50//11
f 49//12 50//12 51//12
f 13//13 47//13 44//13
f 14//14 50//14 47//14
f 15//15 44//15 50//15
f 47//16 50//16 44//16
f 1//17 45//17 53//17
f 15//18 52//18 45//18
f 17//19 53//19 52//19
f 45//20 52//20 53//20
f 6//21 54//21 49//21
f 16//22 55//22 54//22
f 15//23 49//23 55//23
f 54//24 55//24 49//24
f 2//25 56//25 58//25
f 17//26 57//26 56//26
f 16//27 58//27 57//27
f 56//28 57//28 58//28
f 15//29 55//29 52//29
f 16//30 57//30 55//30
f 17//31 52//31 57//31
f 55//32 57//32 52//32
f 1//33 53//33 60//33
f 17//34 59//34 53//34
f 19//35 60//35 59//35
f 53//36 59//36 60//36
f 2//37 61//37 56//37
f 18//38 62//38 61//38
f 17//39 56//39 62//39
f 61//40 62//40 56//40
f 8//41 63//41 65//41
f 19//42 64//42 63//42
f 18//43 65//43 64//43
f 63//44 64//44 65//44
f 17//45 62//45 59//45
f 18//46 64//46 62//46
f 19//47 59//47 64//47
f 62//48 64//48 59//48
f 1//49 60//49 67//49
f 19//50 66//50 60//50
f 21//51 67//51 66//51
f 60//52 66//52 67//52
f 8//53 68//53 63//53
f 20//54 69//54 68//54
f 19//55 63//55 69//55
f 68//56 69//56 63//56
f 11//57 70//57 72//57
f 21//58 71//58 70//58
f 20//59 72//59 71//59
f 70//60 71//60 72//60
f 19//61 69//61 66//61
f 20//62 71//62 69//62
f 21//63 66//63 71//63
f 69//64 71//64 66//64
f 1//65 67//65 43//65
f 21//66 73//66 67//66
f 13//67 43//67 73//67
f 67//68 73//68 43//68
f 11//69 74//69 70//69
f 22//70 75//70 74//70
f 21//71 70//71 75//71
f 74//72 75//72 70//72
f 12//73 48//73 77//73
f 13//74 76//74 48//74
f 22//75 77//75 76//75
f 48//76 76//76 77//76
f 21//77 75//77 73//77
f 22//78 76//78 75//78
f 13//79 73//79 76//79
f 75//80 76//80 73//80
f 2//81 58//81 79//81
f 16//82 78//82 58//82
f 24//83 79//83 78//83
f 58//84 78//84 79//84
f 6//85 80//85 54//85
f 23//86 81//86 80//86
f 16//87 54//87 81//87
f 80//88 81//88 54//88
f 10//89 82//89 84//89
f 24//90 83//90 82//90
f 23//91 84//91 83//91
f 82//92 83//92 84//92
f 16//93 81//93 78//93
f 23//94 83//94 81//94
f 24//95 78//95 83//95
f 81//96 83//96 78//96
f 6//97 51//97 86//97
f 14//98 85//98 51//98
f 26//99 86//99 85//99
f 51//100 85//100 86//100
f 12//101 87//101 46//101
f 25//102 88//102 87//102
f 14//103 46//103 88//103
f 87//104 88//104 46//104
f 5//105 89//105 91//105
f 26//106 90//106 89//106
f 25//107 91//107 90//107
f 89//108 90//108 91//108
f 14//109 88//109 85//109
f 25//110 90//110 88//110
f 26//111 85//111 90//111
f 88//112 90//112 85//112
f 12//113 77//113 93//113
f 22//114 92//114 77//114
f 28//115 93//115 92//115
f 77//116 92//116 93//116
f 11//117 94//117 74//117
f 27//118 95//118 94//118
f 22//119 74//119 95//119
f 94//120 95//120 74//120
f 3//121 96//121 98//121
f 28//122 97//122 96//122
f 27//123 98//123 97//123
f 96//124 97//124 98//124
f 22//125 95//125 92//125
f 27//126 97//126 95//126
f 28//127 92//127 97//127
f 95//128 97//128 92//128
f 11//129 72//129 100//129
f 20//130 99//130 72//130
f 30//131 100//131 99//131
f 72//132 99//132 100//132
f 8//133 101//133 68//133
f 29//134 102//134 101//134
f 20//135 68//135 102//135
f 101//136 102//136 68//136
f 7//137 103//137 105//137
f 30//138 104//138 103//138
f 29//139 105//139 104//139
f 103//140 104//140 105//140
f 20//141 102//141 99//141
f 29//142 104//142 102//142
f 30//143 99//143 104//143
f 102//144 104//144 99//144
f 8//145 65//145 107//145
f 18//146 106//146 65//146
f 32//147 107//147 106//147
f 65//148 106//148 107//148
f 2//149 108//149 61//149
f 31//150 109//150 108//150
f 18//151 61//151 109//151
f 108//152 109//152 61//152
f 9//153 110//153 112//153
f 32//154 111//154 110//154
f 31//155 112//155 111//155
f 110//156 111//156 112//156
f 18//157 109//157 106//157
f 31//158 111//158 109//158
f 32//159 106//159 111//159
f 109//160 111//160 106//160
f 4//161 113//161 115//161
f 33//162 114//162 113//162
f 35//163 115//163 114//163
f 113//164 114//164 115//164
f 10//165 116//165 118//165
f 34//166 117//166 116//166
f 33//167 118//167 117//167
f 116//168 117//168 118//168
f 5//169 119//169 121//169
f 35//170 120//170 119//170
f 34//171 121//171 120//171
f 119//172 120//172 121//172
f 33//173 117//173 114//173
f 34//174 120//174 117//174
f 35//175 114//175 120//175
f 117//176 120//176 114//176
f 4//177 115//177 123//177
f 35//178 122//178 115//178
f 37//179 123//179 122//179
f 115//180 122//180 123//180
f 5//181 124//181 119//181
f 36//182 125//182 124//182
f 35//183 119//183 125//183
f 124//184 125//184 119//184
f 3//185 126//185 128//185
f 37//186 127//186 126//186
f 36//187 128//187 127//187
f 126//188 127//188 128//188
f 35//189 125//189 122//189
f 36//190 127//190 125//190
f 37//191 122//191 127//191
f 125//192 127//192 122//192
f 4//193 123//193 130//193
f 37//194 129//194 123//194
f 39//195 130//195 129//195
f 123//196 129//196 130//196
f 3//197 131//197 126//197
f 38//198 132//198 131//198
f 37//199 126//199 132//199
f 131//200 132//200 126//200
f 7//201 133//201 135//201
f 39//202 134//202 133//202
f 38//203 135//203 134//203
f 133//204 134//204 135//204
f 37//205 132//205 129//205
f 38//206 134//206 132//206
f 39//207 129//207 134//207
f 132//208 134//208 129//208
f 4//209 130//209 137//209
f 39//210 136//210 130//210
f 41//211 137//211 136//211
f 130//212 136//212 137//212
f 7//213 138//213 133//213
f 40//214 139//214 138//214
f 39//215 133//215 139//215
f 138//216 139//216 133//216
f 9//217 140//217 142//217
f 41//218 141//218 140//218
f 40//219 142//219 141//219
f 140//220 141//220 142//220
f 39//221 139//221 136//221
f 40//222 141//222 139//222
f 41//223 136//223 141//223
f 139//224 141//224 136//224
f 4//225 137//225 113//225
f 41//226 143//226 137//226
f 33//227 113//227 143//227
f 137//228 143//228 113//228
f 9//229 144//229 140//229
f 42//230 145//230 144//230
f 41//231 140//231 145//231
f 144//232 145//232 140//232
f 10//233 118//233 147//233
f 33//234 146//234 118//234
f 42//235 147//235 146//235
f 118//236 146//236 147//236
f 41//237 145//237 143//237
f 42//238 146//238 145//238
f 33//239 143//239 146//239
f 145//240 146//240 143//240
f 5//241 121//241 89//241
f 34//242 148//242 121//242
f 26//243 89//243 148//243
f 121//244 148//244 89//244
f 10//245 84//245 116//245
f 23//246 149//246 84//246
f 34//247 116//247 149//247
f 84//248 149//248 116//248
f 6//249 86//249 80//249
f 26//250 150//250 86//250
f 23//251 80//251 150//251
f 86//252 150//252 80//252
f 34//253 149//253 148//253
f 23//254 150//254 149//254
f 26//255 148//255 150//255
f 149//256 150//256 148//256
f 3//257 128//257 96//257
f 36//258 151//258 128//258
f 28//259 96//259 151//259
f 128//260 151//260 96//260
f 5//261 91//261 124//261
f 25//262 152//262 91//262
f 36//263 124//263 152//263
f 91//264 152//264 124//264
f 12//265 93//265 87//265
f 28//266 153//266 93//266
f 25//267 87//267 153//267
f 93//268 153//268 87//268
f 36//269 152//269 151//269
f 25//270 153//270 152//270
f 28//271 151//271 153//271
f 152//272 153//272 151//272
f 7//273 135//273 103//273
f 38//274 154//274 135//274
f 30//275 103//275 154//275
f 135//276 154//276 103//276
f 3//277 98//277 131//277
f 27//278 155//278 98//278
f 38//279 131//279 155//279
f 98//280 155//280 131//280
f 11//281 100//281 94//281
f 30//282 156//282 100//282
f 27//283 94//283 156//283
f 100//284 156//284 94//284
f 38//285 155//285 154//285
f 27//286 156//286 155//286
f 30//287 154//287 156//287
f 155//288 156//288 154//288
f 9//289 142//289 110//289
f 40//290 157//290 142//290
f 32//291 110//291 157//291
f 142//292 157//292 110//292
f 7//293 105//293 138//293
f 29//294 158//294 105//294
f 40//295 138//295 158//295
f 105//296 158//296 138//296
f 8//297 107//297 101//297
f 32//298 159//298 107//298
f 29//299 101//299 159//299
f 107//300 159//300 101//300
f 40//301 158//301 157//301
f 29//302 159//302 158//302
f 32//303 157//303 159//303
f 158//304 159//304 157//304
f 10//305 147//305 82//305
f 42//306 160//306 147//306
f 24//307 82//307 160//307
f 147//308 160//308 82//308
f 9//309 112//309 144//309
f 31//310 161//310 112//310
f 42//311 144//311 161//311
f 112//312 161//312 144//312
f 2//313 79//313 108//313
f 24//314 162//314 79//314
f 31//315 108//315 162//315
f 79//316 162//316 108//316
f 42//317 161//317 160//317
f 31//318 162//318 161//318
f 24//319 160//319 162//319
f 161//320 162//320 160//320
